%FSLAX24Y24*%
%MOIN*%
%SFA1B1*%

%IPPOS*%
%AMD93*
4,1,8,0.025600,0.019700,-0.025600,0.019700,-0.035400,0.009800,-0.035400,-0.009800,-0.025600,-0.019700,0.025600,-0.019700,0.035400,-0.009800,0.035400,0.009800,0.025600,0.019700,0.0*
1,1,0.019685,0.025600,0.009800*
1,1,0.019685,-0.025600,0.009800*
1,1,0.019685,-0.025600,-0.009800*
1,1,0.019685,0.025600,-0.009800*
%
%ADD15C,0.010000*%
%ADD78C,0.031496*%
%ADD84C,0.118110*%
%ADD85C,0.067913*%
%ADD86R,0.067913X0.067913*%
%ADD87C,0.109252*%
%ADD89C,0.070866*%
%ADD90C,0.051181*%
%ADD91R,0.051181X0.051181*%
%ADD92C,0.074803*%
G04~CAMADD=93~8~0.0~0.0~708.7~393.7~98.4~0.0~15~0.0~0.0~0.0~0.0~0~0.0~0.0~0.0~0.0~0~0.0~0.0~0.0~0.0~708.7~393.7*
%ADD93D93*%
%ADD94O,0.082677X0.039370*%
%ADD96C,0.064960*%
%ADD98R,0.067913X0.067913*%
%ADD100C,0.019685*%
%LNpeoplecounter-1*%
%LPD*%
G36*
X27256Y16036D02*
X27313Y16012D01*
X27364Y15978*
X27407Y15935*
X27441Y15884*
X27465Y15827*
X27477Y15767*
Y15736*
Y393*
Y362*
X27465Y302*
X27441Y245*
X27407Y194*
X27364Y151*
X27313Y117*
X27256Y93*
X27196Y81*
X27165*
X393*
X362*
X302Y93*
X245Y117*
X194Y151*
X151Y194*
X117Y245*
X93Y302*
X81Y362*
Y393*
Y15736*
Y15767*
X93Y15827*
X117Y15884*
X151Y15935*
X194Y15978*
X245Y16012*
X302Y16036*
X362Y16048*
X393*
X27196*
X27256Y16036*
G37*
%LNpeoplecounter-2*%
%LPC*%
G36*
X8418Y15994D02*
X8329D01*
X8244Y15971*
X8167Y15926*
X8104Y15864*
X8060Y15787*
X8037Y15701*
Y15613*
X8060Y15527*
X8104Y15450*
X8167Y15388*
X8244Y15343*
X8329Y15320*
X8418*
X8503Y15343*
X8580Y15388*
X8643Y15450*
X8687Y15527*
X8710Y15613*
Y15701*
X8687Y15787*
X8643Y15864*
X8580Y15926*
X8503Y15971*
X8418Y15994*
G37*
G36*
X7418D02*
X7329D01*
X7244Y15971*
X7167Y15926*
X7104Y15864*
X7060Y15787*
X7037Y15701*
Y15613*
X7060Y15527*
X7104Y15450*
X7167Y15388*
X7244Y15343*
X7329Y15320*
X7418*
X7503Y15343*
X7580Y15388*
X7643Y15450*
X7687Y15527*
X7710Y15613*
Y15701*
X7687Y15787*
X7643Y15864*
X7580Y15926*
X7503Y15971*
X7418Y15994*
G37*
G36*
X26033Y15655D02*
X25934D01*
X25839Y15629*
X25753Y15580*
X25683Y15510*
X25633Y15424*
X25608Y15329*
Y15230*
X25633Y15134*
X25683Y15048*
X25753Y14978*
X25839Y14929*
X25934Y14903*
X26033*
X26129Y14929*
X26215Y14978*
X26285Y15048*
X26334Y15134*
X26360Y15230*
Y15329*
X26334Y15424*
X26285Y15510*
X26215Y15580*
X26129Y15629*
X26033Y15655*
G37*
G36*
X23154Y15100D02*
X23065D01*
X22980Y15077*
X22903Y15033*
X22840Y14970*
X22796Y14893*
X22773Y14808*
Y14719*
X22796Y14633*
X22840Y14557*
X22903Y14494*
X22980Y14450*
X23065Y14427*
X23154*
X23240Y14450*
X23316Y14494*
X23379Y14557*
X23423Y14633*
X23446Y14719*
Y14808*
X23423Y14893*
X23379Y14970*
X23316Y15033*
X23240Y15077*
X23154Y15100*
G37*
G36*
X20154D02*
X20065D01*
X19980Y15077*
X19903Y15033*
X19840Y14970*
X19796Y14893*
X19773Y14808*
Y14719*
X19796Y14633*
X19840Y14557*
X19903Y14494*
X19980Y14450*
X20065Y14427*
X20154*
X20240Y14450*
X20316Y14494*
X20379Y14557*
X20423Y14633*
X20446Y14719*
Y14808*
X20423Y14893*
X20379Y14970*
X20316Y15033*
X20240Y15077*
X20154Y15100*
G37*
G36*
X19154D02*
X19065D01*
X18980Y15077*
X18903Y15033*
X18840Y14970*
X18796Y14893*
X18773Y14808*
Y14719*
X18796Y14633*
X18840Y14557*
X18903Y14494*
X18980Y14450*
X19065Y14427*
X19154*
X19240Y14450*
X19316Y14494*
X19379Y14557*
X19423Y14633*
X19446Y14719*
Y14808*
X19423Y14893*
X19379Y14970*
X19316Y15033*
X19240Y15077*
X19154Y15100*
G37*
G36*
X18154D02*
X18065D01*
X17980Y15077*
X17903Y15033*
X17840Y14970*
X17796Y14893*
X17773Y14808*
Y14719*
X17796Y14633*
X17840Y14557*
X17903Y14494*
X17980Y14450*
X18065Y14427*
X18154*
X18240Y14450*
X18316Y14494*
X18379Y14557*
X18423Y14633*
X18446Y14719*
Y14808*
X18423Y14893*
X18379Y14970*
X18316Y15033*
X18240Y15077*
X18154Y15100*
G37*
G36*
X16067D02*
X15979D01*
X15893Y15077*
X15816Y15033*
X15754Y14970*
X15710Y14893*
X15687Y14808*
Y14719*
X15710Y14633*
X15754Y14557*
X15816Y14494*
X15893Y14450*
X15979Y14427*
X16067*
X16153Y14450*
X16230Y14494*
X16292Y14557*
X16337Y14633*
X16360Y14719*
Y14808*
X16337Y14893*
X16292Y14970*
X16230Y15033*
X16153Y15077*
X16067Y15100*
G37*
G36*
X13067D02*
X12979D01*
X12893Y15077*
X12816Y15033*
X12754Y14970*
X12710Y14893*
X12687Y14808*
Y14719*
X12710Y14633*
X12754Y14557*
X12816Y14494*
X12893Y14450*
X12979Y14427*
X13067*
X13153Y14450*
X13230Y14494*
X13292Y14557*
X13337Y14633*
X13360Y14719*
Y14808*
X13337Y14893*
X13292Y14970*
X13230Y15033*
X13153Y15077*
X13067Y15100*
G37*
G36*
X12067D02*
X11979D01*
X11893Y15077*
X11816Y15033*
X11754Y14970*
X11710Y14893*
X11687Y14808*
Y14719*
X11710Y14633*
X11754Y14557*
X11816Y14494*
X11893Y14450*
X11979Y14427*
X12067*
X12153Y14450*
X12230Y14494*
X12292Y14557*
X12337Y14633*
X12360Y14719*
Y14808*
X12337Y14893*
X12292Y14970*
X12230Y15033*
X12153Y15077*
X12067Y15100*
G37*
G36*
X11067D02*
X10979D01*
X10893Y15077*
X10816Y15033*
X10754Y14970*
X10710Y14893*
X10687Y14808*
Y14719*
X10710Y14633*
X10754Y14557*
X10816Y14494*
X10893Y14450*
X10979Y14427*
X11067*
X11153Y14450*
X11230Y14494*
X11292Y14557*
X11337Y14633*
X11360Y14719*
Y14808*
X11337Y14893*
X11292Y14970*
X11230Y15033*
X11153Y15077*
X11067Y15100*
G37*
G36*
X8418Y14994D02*
X8329D01*
X8244Y14971*
X8167Y14926*
X8104Y14864*
X8060Y14787*
X8037Y14701*
Y14613*
X8060Y14527*
X8104Y14450*
X8167Y14388*
X8244Y14343*
X8329Y14320*
X8418*
X8503Y14343*
X8580Y14388*
X8643Y14450*
X8687Y14527*
X8710Y14613*
Y14701*
X8687Y14787*
X8643Y14864*
X8580Y14926*
X8503Y14971*
X8418Y14994*
G37*
G36*
X4508Y15129D02*
X4381D01*
X4257Y15096*
X4147Y15033*
X4057Y14942*
X3993Y14832*
X3960Y14709*
Y14581*
X3993Y14458*
X4057Y14348*
X4147Y14258*
X4257Y14194*
X4381Y14161*
X4508*
X4631Y14194*
X4742Y14258*
X4832Y14348*
X4896Y14458*
X4929Y14581*
Y14709*
X4896Y14832*
X4832Y14942*
X4742Y15033*
X4631Y15096*
X4508Y15129*
G37*
G36*
X26033Y14655D02*
X25934D01*
X25839Y14629*
X25753Y14580*
X25683Y14510*
X25633Y14424*
X25608Y14329*
Y14230*
X25633Y14134*
X25683Y14048*
X25753Y13978*
X25839Y13929*
X25934Y13903*
X26033*
X26129Y13929*
X26215Y13978*
X26285Y14048*
X26334Y14134*
X26360Y14230*
Y14329*
X26334Y14424*
X26285Y14510*
X26215Y14580*
X26129Y14629*
X26033Y14655*
G37*
G36*
X4510Y13461D02*
X4379D01*
X4250Y13435*
X4129Y13385*
X4020Y13312*
X3927Y13220*
X3854Y13110*
X3804Y12989*
X3778Y12860*
Y12729*
X3804Y12600*
X3813Y12579*
X3365Y12130*
X3320Y12072*
X3292Y12005*
X3283Y11932*
Y7230*
Y6170*
X3292Y6097*
X3320Y6030*
X3365Y5972*
X3423Y5927*
X3490Y5899*
X3562Y5890*
X3635Y5899*
X3702Y5927*
X3760Y5972*
X3805Y6030*
X3833Y6097*
X3842Y6170*
Y7230*
Y11817*
X4200Y12175*
X4250Y12154*
X4379Y12129*
X4510*
X4639Y12154*
X4760Y12204*
X4869Y12277*
X4962Y12370*
X5035Y12479*
X5085Y12600*
X5111Y12729*
Y12860*
X5085Y12989*
X5035Y13110*
X4962Y13220*
X4869Y13312*
X4760Y13385*
X4639Y13435*
X4510Y13461*
G37*
G36*
X26033Y12655D02*
X25934D01*
X25839Y12629*
X25753Y12580*
X25683Y12510*
X25633Y12424*
X25608Y12329*
Y12230*
X25633Y12134*
X25683Y12048*
X25753Y11978*
X25839Y11929*
X25934Y11903*
X26033*
X26129Y11929*
X26215Y11978*
X26285Y12048*
X26334Y12134*
X26360Y12230*
Y12329*
X26334Y12424*
X26285Y12510*
X26215Y12580*
X26129Y12629*
X26033Y12655*
G37*
G36*
X18385Y11789D02*
X18314D01*
X18248Y11761*
X18198Y11711*
X18170Y11645*
Y11574*
X18198Y11508*
X18248Y11458*
X18314Y11430*
X18385*
X18451Y11458*
X18501Y11508*
X18529Y11574*
Y11645*
X18501Y11711*
X18451Y11761*
X18385Y11789*
G37*
G36*
X22575Y11759D02*
X22504D01*
X22438Y11731*
X22388Y11681*
X22360Y11615*
Y11544*
X22388Y11478*
X22438Y11428*
X22504Y11400*
X22575*
X22641Y11428*
X22691Y11478*
X22719Y11544*
Y11615*
X22691Y11681*
X22641Y11731*
X22575Y11759*
G37*
G36*
X19025Y11739D02*
X18954D01*
X18888Y11711*
X18838Y11661*
X18810Y11595*
Y11524*
X18838Y11458*
X18888Y11408*
X18954Y11380*
X19025*
X19091Y11408*
X19141Y11458*
X19169Y11524*
Y11595*
X19141Y11661*
X19091Y11711*
X19025Y11739*
G37*
G36*
X4508Y11429D02*
X4381D01*
X4257Y11396*
X4147Y11332*
X4057Y11242*
X3993Y11131*
X3960Y11008*
Y10881*
X3993Y10757*
X4057Y10647*
X4147Y10557*
X4257Y10493*
X4381Y10460*
X4508*
X4631Y10493*
X4742Y10557*
X4832Y10647*
X4896Y10757*
X4929Y10881*
Y11008*
X4896Y11131*
X4832Y11242*
X4742Y11332*
X4631Y11396*
X4508Y11429*
G37*
G36*
X19165Y10609D02*
X19094D01*
X19028Y10581*
X18978Y10531*
X18950Y10465*
Y10394*
X18978Y10328*
X19028Y10278*
X19094Y10250*
X19165*
X19231Y10278*
X19281Y10328*
X19309Y10394*
Y10465*
X19281Y10531*
X19231Y10581*
X19165Y10609*
G37*
G36*
X18173Y10743D02*
X17190D01*
X17123Y10730*
X17067Y10692*
X16128Y9753*
X7680*
X7613Y9740*
X7557Y9702*
X6513Y8658*
X6496*
X6416Y8625*
X6354Y8563*
X6321Y8483*
Y8396*
X6354Y8316*
X6416Y8254*
X6460Y8236*
X6482Y8175*
X6473Y8158*
X6416Y8135*
X6354Y8073*
X6321Y7993*
Y7906*
X6354Y7826*
X6416Y7764*
X6496Y7731*
X6583*
X6663Y7764*
X6725Y7826*
X6758Y7906*
Y7923*
X7801Y8966*
X16450*
X16516Y8979*
X16572Y9017*
X17372Y9816*
X17393*
X17473Y9850*
X17535Y9911*
X17568Y9991*
Y10078*
X17535Y10159*
X17473Y10220*
X17393Y10253*
X17306*
X17226Y10220*
X17164Y10159*
X17131Y10078*
Y10066*
X16378Y9313*
X7730*
X7728Y9313*
X7704Y9359*
X7751Y9406*
X16200*
X16266Y9419*
X16322Y9457*
X17261Y10396*
X18101*
X18291Y10207*
Y10190*
X18324Y10110*
X18386Y10048*
X18466Y10015*
X18553*
X18633Y10048*
X18695Y10110*
X18728Y10190*
Y10277*
X18695Y10357*
X18633Y10418*
X18553Y10452*
X18536*
X18296Y10692*
X18240Y10730*
X18173Y10743*
G37*
G36*
X26438Y10833D02*
X26317D01*
X26200Y10802*
X26095Y10741*
X26010Y10656*
X25949Y10551*
X25948Y10547*
X22293*
X22227Y10534*
X22170Y10496*
X18783Y7108*
X18766*
X18765Y7108*
X18728Y7133*
X18695Y7213*
X18633Y7275*
X18553Y7308*
X18466*
X18386Y7275*
X18324Y7213*
X18291Y7133*
Y7116*
X16388Y5213*
X7410*
X7343Y5200*
X7287Y5162*
X4638Y2513*
X1956*
X1889Y2500*
X1833Y2462*
X1107Y1736*
X1043Y1753*
X944*
X849Y1728*
X763Y1678*
X693Y1608*
X643Y1523*
X618Y1427*
Y1328*
X643Y1232*
X693Y1147*
X763Y1077*
X849Y1027*
X944Y1002*
X1043*
X1139Y1027*
X1224Y1077*
X1294Y1147*
X1344Y1232*
X1370Y1328*
Y1427*
X1352Y1491*
X2027Y2166*
X4710*
X4776Y2179*
X4832Y2217*
X7481Y4866*
X16460*
X16526Y4879*
X16582Y4917*
X18536Y6871*
X18553*
X18554Y6871*
X18591Y6847*
X18624Y6766*
X18686Y6705*
X18738Y6683*
X18750Y6625*
X16308Y4183*
X8780*
X8713Y4170*
X8657Y4132*
X7967Y3442*
X7929Y3386*
X7916Y3320*
Y1119*
X7912Y1118*
X7807Y1057*
X7722Y972*
X7661Y867*
X7630Y750*
Y629*
X7661Y512*
X7722Y407*
X7807Y322*
X7912Y261*
X8029Y230*
X8150*
X8267Y261*
X8372Y322*
X8457Y407*
X8518Y512*
X8549Y629*
Y750*
X8518Y867*
X8457Y972*
X8372Y1057*
X8267Y1118*
X8263Y1119*
Y3248*
X8851Y3836*
X16380*
X16446Y3849*
X16502Y3887*
X17591Y4975*
X17640Y4955*
Y4904*
X17668Y4838*
X17718Y4788*
X17770Y4766*
X17789Y4714*
X15848Y2773*
X9640*
X9573Y2760*
X9517Y2722*
X8967Y2172*
X8929Y2116*
X8916Y2050*
Y1119*
X8912Y1118*
X8807Y1057*
X8722Y972*
X8661Y867*
X8630Y750*
Y629*
X8661Y512*
X8722Y407*
X8807Y322*
X8912Y261*
X9029Y230*
X9150*
X9267Y261*
X9372Y322*
X9457Y407*
X9518Y512*
X9549Y629*
Y750*
X9518Y867*
X9457Y972*
X9372Y1057*
X9267Y1118*
X9263Y1119*
Y1978*
X9711Y2426*
X15920*
X15986Y2439*
X16042Y2477*
X19646Y6081*
X19663*
X19743Y6114*
X19805Y6176*
X19838Y6256*
Y6273*
X20765Y7200*
X25948*
X25949Y7196*
X26010Y7091*
X26095Y7006*
X26200Y6945*
X26317Y6914*
X26438*
X26555Y6945*
X26660Y7006*
X26745Y7091*
X26806Y7196*
X26837Y7313*
Y7434*
X26806Y7551*
X26745Y7656*
X26660Y7741*
X26555Y7802*
X26438Y7833*
X26317*
X26200Y7802*
X26095Y7741*
X26010Y7656*
X25949Y7551*
X25948Y7547*
X24655*
X24629Y7597*
X24649Y7644*
Y7715*
X24621Y7781*
X24571Y7831*
X24505Y7859*
X24434*
X24368Y7831*
X24318Y7781*
X24290Y7715*
Y7644*
X24310Y7597*
X24284Y7547*
X20723*
X20702Y7597*
X21305Y8200*
X22225*
X22237Y8156*
X22237Y8150*
X22188Y8101*
X22160Y8035*
Y7964*
X22188Y7898*
X22238Y7848*
X22304Y7820*
X22375*
X22441Y7848*
X22491Y7898*
X22519Y7964*
Y8035*
X22491Y8101*
X22442Y8150*
X22442Y8156*
X22454Y8200*
X22690*
X22700Y8150*
X22678Y8141*
X22628Y8091*
X22600Y8025*
Y7954*
X22628Y7888*
X22678Y7838*
X22744Y7810*
X22815*
X22881Y7838*
X22931Y7888*
X22959Y7954*
Y8025*
X22931Y8091*
X22881Y8141*
X22859Y8150*
X22869Y8200*
X25948*
X25949Y8196*
X26010Y8091*
X26095Y8006*
X26200Y7945*
X26317Y7914*
X26438*
X26555Y7945*
X26660Y8006*
X26745Y8091*
X26806Y8196*
X26837Y8313*
Y8434*
X26806Y8551*
X26745Y8656*
X26660Y8741*
X26555Y8802*
X26438Y8833*
X26317*
X26200Y8802*
X26095Y8741*
X26010Y8656*
X25949Y8551*
X25948Y8547*
X21234*
X21232Y8547*
X21208Y8593*
X21815Y9200*
X25948*
X25949Y9196*
X26010Y9091*
X26095Y9006*
X26200Y8945*
X26317Y8914*
X26438*
X26555Y8945*
X26660Y9006*
X26745Y9091*
X26806Y9196*
X26837Y9313*
Y9434*
X26806Y9551*
X26745Y9656*
X26660Y9741*
X26555Y9802*
X26438Y9833*
X26317*
X26200Y9802*
X26095Y9741*
X26010Y9656*
X25949Y9551*
X25948Y9547*
X21782*
X21762Y9597*
X22365Y10200*
X25948*
X25949Y10196*
X26010Y10091*
X26095Y10006*
X26200Y9945*
X26317Y9914*
X26438*
X26555Y9945*
X26660Y10006*
X26745Y10091*
X26806Y10196*
X26837Y10313*
Y10434*
X26806Y10551*
X26745Y10656*
X26660Y10741*
X26555Y10802*
X26438Y10833*
G37*
G36*
X15925Y10582D02*
X15834D01*
X15746Y10558*
X15667Y10513*
X15602Y10448*
X15557Y10369*
X15533Y10281*
Y10190*
X15557Y10102*
X15602Y10023*
X15667Y9959*
X15746Y9913*
X15834Y9889*
X15925*
X16013Y9913*
X16092Y9959*
X16157Y10023*
X16202Y10102*
X16226Y10190*
Y10281*
X16202Y10369*
X16157Y10448*
X16092Y10513*
X16013Y10558*
X15925Y10582*
G37*
G36*
X14925D02*
X14834D01*
X14746Y10558*
X14667Y10513*
X14602Y10448*
X14557Y10369*
X14533Y10281*
Y10190*
X14557Y10102*
X14602Y10023*
X14667Y9959*
X14746Y9913*
X14834Y9889*
X14925*
X15013Y9913*
X15092Y9959*
X15157Y10023*
X15202Y10102*
X15226Y10190*
Y10281*
X15202Y10369*
X15157Y10448*
X15092Y10513*
X15013Y10558*
X14925Y10582*
G37*
G36*
X13925D02*
X13834D01*
X13746Y10558*
X13667Y10513*
X13602Y10448*
X13557Y10369*
X13533Y10281*
Y10190*
X13557Y10102*
X13602Y10023*
X13667Y9959*
X13746Y9913*
X13834Y9889*
X13925*
X14013Y9913*
X14092Y9959*
X14157Y10023*
X14202Y10102*
X14226Y10190*
Y10281*
X14202Y10369*
X14157Y10448*
X14092Y10513*
X14013Y10558*
X13925Y10582*
G37*
G36*
X20255Y9629D02*
X20184D01*
X20118Y9601*
X20068Y9551*
X20040Y9485*
Y9414*
X20068Y9348*
X20118Y9298*
X20184Y9270*
X20255*
X20321Y9298*
X20371Y9348*
X20399Y9414*
Y9485*
X20371Y9551*
X20321Y9601*
X20255Y9629*
G37*
G36*
X19725Y9429D02*
X19654D01*
X19588Y9401*
X19538Y9351*
X19510Y9285*
Y9214*
X19538Y9148*
X19588Y9098*
X19654Y9070*
X19725*
X19791Y9098*
X19841Y9148*
X19869Y9214*
Y9285*
X19841Y9351*
X19791Y9401*
X19725Y9429*
G37*
G36*
X11845Y8869D02*
X11774D01*
X11708Y8841*
X11658Y8791*
X11630Y8725*
Y8654*
X11658Y8588*
X11708Y8538*
X11774Y8510*
X11845*
X11911Y8538*
X11961Y8588*
X11989Y8654*
Y8725*
X11961Y8791*
X11911Y8841*
X11845Y8869*
G37*
G36*
X18555Y8839D02*
X18484D01*
X18418Y8811*
X18368Y8761*
X18340Y8695*
Y8624*
X18368Y8558*
X18418Y8508*
X18484Y8480*
X18555*
X18621Y8508*
X18671Y8558*
X18699Y8624*
Y8695*
X18671Y8761*
X18621Y8811*
X18555Y8839*
G37*
G36*
X14320Y8783D02*
X14248D01*
X14182Y8756*
X14132Y8705*
X14105Y8640*
Y8568*
X14132Y8502*
X14182Y8452*
X14248Y8425*
X14320*
X14385Y8452*
X14436Y8502*
X14463Y8568*
Y8640*
X14436Y8705*
X14385Y8756*
X14320Y8783*
G37*
G36*
X2343Y8078D02*
X2244D01*
X2153Y8040*
X2084Y7971*
X2046Y7880*
Y7781*
X2084Y7690*
X2153Y7620*
X2244Y7582*
X2343*
X2434Y7620*
X2504Y7690*
X2542Y7781*
Y7880*
X2504Y7971*
X2434Y8040*
X2343Y8078*
G37*
G36*
X9195Y6649D02*
X9124D01*
X9058Y6621*
X9008Y6571*
X8980Y6505*
Y6434*
X9008Y6368*
X9058Y6318*
X9124Y6290*
X9195*
X9261Y6318*
X9311Y6368*
X9339Y6434*
Y6505*
X9311Y6571*
X9261Y6621*
X9195Y6649*
G37*
G36*
X2185Y7304D02*
X2114D01*
X2048Y7277*
X1998Y7227*
X1970Y7161*
Y7090*
X1998Y7024*
X2018Y7003*
X2045Y6971*
X2018Y6938*
X1998Y6917*
X1970Y6851*
Y6780*
X1998Y6714*
X2020Y6692*
X1998Y6670*
X1970Y6605*
Y6533*
X1998Y6468*
X2018Y6447*
X2045Y6414*
X2018Y6382*
X1998Y6361*
X1970Y6295*
Y6224*
X1998Y6158*
X2048Y6108*
X2114Y6080*
X2185*
X2251Y6108*
X2301Y6158*
X2328Y6224*
Y6295*
X2301Y6361*
X2280Y6382*
X2253Y6414*
X2280Y6447*
X2301Y6468*
X2328Y6533*
Y6605*
X2301Y6670*
X2279Y6692*
X2301Y6714*
X2328Y6780*
Y6851*
X2301Y6917*
X2280Y6938*
X2253Y6971*
X2280Y7003*
X2301Y7024*
X2328Y7090*
Y7161*
X2301Y7227*
X2251Y7277*
X2185Y7304*
G37*
G36*
X26423Y6720D02*
X26332D01*
X26244Y6696*
X26165Y6651*
X26100Y6586*
X26055Y6507*
X26031Y6419*
Y6328*
X26055Y6240*
X26100Y6161*
X26165Y6096*
X26244Y6051*
X26332Y6027*
X26423*
X26511Y6051*
X26590Y6096*
X26655Y6161*
X26700Y6240*
X26724Y6328*
Y6419*
X26700Y6507*
X26655Y6586*
X26590Y6651*
X26511Y6696*
X26423Y6720*
G37*
G36*
X19615Y5819D02*
X19544D01*
X19478Y5791*
X19428Y5741*
X19400Y5675*
Y5604*
X19428Y5538*
X19478Y5488*
X19544Y5460*
X19615*
X19681Y5488*
X19731Y5538*
X19759Y5604*
Y5675*
X19731Y5741*
X19681Y5791*
X19615Y5819*
G37*
G36*
X2343Y5803D02*
X2244D01*
X2153Y5765*
X2084Y5695*
X2046Y5604*
Y5505*
X2084Y5414*
X2153Y5344*
X2244Y5307*
X2343*
X2434Y5344*
X2504Y5414*
X2542Y5505*
Y5604*
X2504Y5695*
X2434Y5765*
X2343Y5803*
G37*
G36*
X22208Y4622D02*
X22137D01*
X22071Y4595*
X22021Y4545*
X21994Y4479*
Y4408*
X22021Y4342*
X22071Y4292*
X22137Y4264*
X22208*
X22274Y4292*
X22325Y4342*
X22352Y4408*
Y4479*
X22325Y4545*
X22274Y4595*
X22208Y4622*
G37*
G36*
X24045Y4229D02*
X23974D01*
X23908Y4201*
X23858Y4151*
X23830Y4085*
Y4014*
X23858Y3948*
X23908Y3898*
X23974Y3870*
X24045*
X24111Y3898*
X24161Y3948*
X24189Y4014*
Y4085*
X24161Y4151*
X24111Y4201*
X24045Y4229*
G37*
G36*
X14145Y3709D02*
X14074D01*
X14008Y3681*
X13958Y3631*
X13930Y3565*
Y3494*
X13958Y3428*
X14008Y3378*
X14074Y3350*
X14145*
X14211Y3378*
X14261Y3428*
X14289Y3494*
Y3565*
X14261Y3631*
X14211Y3681*
X14145Y3709*
G37*
G36*
X21979Y3641D02*
X21908D01*
X21842Y3614*
X21792Y3564*
X21765Y3498*
Y3427*
X21792Y3361*
X21842Y3311*
X21908Y3283*
X21979*
X22045Y3311*
X22096Y3361*
X22123Y3427*
Y3498*
X22096Y3564*
X22045Y3614*
X21979Y3641*
G37*
G36*
X21545Y3595D02*
X21474D01*
X21408Y3568*
X21358Y3517*
X21330Y3452*
Y3380*
X21358Y3315*
X21408Y3264*
X21474Y3237*
X21545*
X21611Y3264*
X21661Y3315*
X21689Y3380*
Y3452*
X21661Y3517*
X21611Y3568*
X21545Y3595*
G37*
G36*
X20011D02*
X19940D01*
X19874Y3568*
X19823Y3517*
X19796Y3452*
Y3380*
X19823Y3315*
X19874Y3264*
X19940Y3237*
X20011*
X20077Y3264*
X20127Y3315*
X20154Y3380*
Y3452*
X20127Y3517*
X20077Y3568*
X20011Y3595*
G37*
G36*
X17433Y7498D02*
X17346D01*
X17266Y7465*
X17204Y7403*
X17171Y7323*
Y7306*
X15568Y5703*
X7232*
X7166Y5690*
X7110Y5652*
X4583Y3126*
X1370*
Y3328*
X618*
Y2576*
X1370*
Y2779*
X4655*
X4721Y2792*
X4778Y2830*
X7304Y5356*
X15640*
X15706Y5369*
X15762Y5407*
X17416Y7061*
X17433*
X17513Y7094*
X17575Y7156*
X17608Y7236*
Y7323*
X17575Y7403*
X17513Y7465*
X17433Y7498*
G37*
G36*
X10900Y3463D02*
X10829D01*
X10763Y3436*
X10713Y3386*
X10686Y3320*
Y3249*
X10713Y3183*
X10763Y3132*
X10829Y3105*
X10900*
X10966Y3132*
X11017Y3183*
X11044Y3249*
Y3320*
X11017Y3386*
X10966Y3436*
X10900Y3463*
G37*
G36*
X24155Y3249D02*
X24084D01*
X24018Y3221*
X23968Y3171*
X23940Y3105*
Y3034*
X23968Y2968*
X24018Y2918*
X24084Y2890*
X24155*
X24221Y2918*
X24271Y2968*
X24299Y3034*
Y3105*
X24271Y3171*
X24221Y3221*
X24155Y3249*
G37*
G36*
X10415Y3199D02*
X10344D01*
X10278Y3171*
X10228Y3121*
X10200Y3055*
Y2984*
X10228Y2918*
X10278Y2868*
X10344Y2840*
X10415*
X10481Y2868*
X10531Y2918*
X10559Y2984*
Y3055*
X10531Y3121*
X10481Y3171*
X10415Y3199*
G37*
G36*
X6885Y2529D02*
X6814D01*
X6748Y2501*
X6698Y2451*
X6670Y2385*
Y2314*
X6698Y2248*
X6748Y2198*
X6814Y2170*
X6885*
X6951Y2198*
X7001Y2248*
X7029Y2314*
Y2385*
X7001Y2451*
X6951Y2501*
X6885Y2529*
G37*
G36*
X8615Y2499D02*
X8544D01*
X8478Y2471*
X8428Y2421*
X8400Y2355*
Y2284*
X8428Y2218*
X8478Y2168*
X8544Y2140*
X8615*
X8681Y2168*
X8731Y2218*
X8759Y2284*
Y2355*
X8731Y2421*
X8681Y2471*
X8615Y2499*
G37*
G36*
X11415Y1809D02*
X11344D01*
X11278Y1781*
X11228Y1731*
X11200Y1665*
Y1594*
X11228Y1528*
X11278Y1478*
X11344Y1450*
X11415*
X11481Y1478*
X11531Y1528*
X11559Y1594*
Y1665*
X11531Y1731*
X11481Y1781*
X11415Y1809*
G37*
G36*
X9795D02*
X9724D01*
X9658Y1781*
X9608Y1731*
X9580Y1665*
Y1594*
X9608Y1528*
X9658Y1478*
X9724Y1450*
X9795*
X9861Y1478*
X9911Y1528*
X9939Y1594*
Y1665*
X9911Y1731*
X9861Y1781*
X9795Y1809*
G37*
G36*
X15193Y2368D02*
X15106D01*
X15026Y2335*
X14964Y2273*
X14931Y2193*
Y2176*
X14528Y1773*
X12000*
X11933Y1760*
X11877Y1722*
X11271Y1116*
X11267Y1118*
X11150Y1149*
X11029*
X10912Y1118*
X10807Y1057*
X10722Y972*
X10661Y867*
X10630Y750*
Y629*
X10661Y512*
X10722Y407*
X10807Y322*
X10912Y261*
X11029Y230*
X11150*
X11267Y261*
X11372Y322*
X11457Y407*
X11518Y512*
X11549Y629*
Y750*
X11518Y867*
X11516Y871*
X12071Y1426*
X14600*
X14666Y1439*
X14722Y1477*
X15176Y1931*
X15193*
X15273Y1964*
X15335Y2026*
X15368Y2106*
Y2193*
X15335Y2273*
X15273Y2335*
X15193Y2368*
G37*
G36*
X25785Y1186D02*
X25694D01*
X25606Y1162*
X25527Y1117*
X25462Y1052*
X25417Y973*
X25393Y885*
Y794*
X25417Y706*
X25462Y627*
X25527Y562*
X25606Y517*
X25694Y493*
X25785*
X25873Y517*
X25952Y562*
X26017Y627*
X26062Y706*
X26086Y794*
Y885*
X26062Y973*
X26017Y1052*
X25952Y1117*
X25873Y1162*
X25785Y1186*
G37*
G36*
X24785D02*
X24694D01*
X24606Y1162*
X24527Y1117*
X24462Y1052*
X24417Y973*
X24393Y885*
Y794*
X24417Y706*
X24462Y627*
X24527Y562*
X24606Y517*
X24694Y493*
X24785*
X24873Y517*
X24952Y562*
X25017Y627*
X25062Y706*
X25086Y794*
Y885*
X25062Y973*
X25017Y1052*
X24952Y1117*
X24873Y1162*
X24785Y1186*
G37*
G36*
X23785D02*
X23694D01*
X23606Y1162*
X23527Y1117*
X23462Y1052*
X23417Y973*
X23393Y885*
Y794*
X23417Y706*
X23462Y627*
X23527Y562*
X23606Y517*
X23694Y493*
X23785*
X23873Y517*
X23952Y562*
X24017Y627*
X24062Y706*
X24086Y794*
Y885*
X24062Y973*
X24017Y1052*
X23952Y1117*
X23873Y1162*
X23785Y1186*
G37*
G36*
X22785D02*
X22694D01*
X22606Y1162*
X22527Y1117*
X22462Y1052*
X22417Y973*
X22393Y885*
Y794*
X22417Y706*
X22462Y627*
X22527Y562*
X22606Y517*
X22694Y493*
X22785*
X22873Y517*
X22952Y562*
X23017Y627*
X23062Y706*
X23086Y794*
Y885*
X23062Y973*
X23017Y1052*
X22952Y1117*
X22873Y1162*
X22785Y1186*
G37*
G36*
X13135Y1036D02*
X13044D01*
X12956Y1012*
X12877Y967*
X12812Y902*
X12767Y823*
X12743Y735*
Y644*
X12767Y556*
X12812Y477*
X12877Y412*
X12956Y367*
X13044Y343*
X13135*
X13223Y367*
X13302Y412*
X13367Y477*
X13412Y556*
X13436Y644*
Y735*
X13412Y823*
X13367Y902*
X13302Y967*
X13223Y1012*
X13135Y1036*
G37*
G36*
X10135D02*
X10044D01*
X9956Y1012*
X9877Y967*
X9812Y902*
X9767Y823*
X9743Y735*
Y644*
X9767Y556*
X9812Y477*
X9877Y412*
X9956Y367*
X10044Y343*
X10135*
X10223Y367*
X10302Y412*
X10367Y477*
X10412Y556*
X10436Y644*
Y735*
X10412Y823*
X10367Y902*
X10302Y967*
X10223Y1012*
X10135Y1036*
G37*
%LNpeoplecounter-3*%
%LPD*%
G54D15*
X15920Y2600D02*
X19620Y6300D01*
X9640Y2600D02*
X15920D01*
X9090Y2050D02*
X9640Y2600D01*
X9090Y690D02*
Y2050D01*
X16380Y4010D02*
X19070Y6700D01*
X8090Y690D02*
Y3320D01*
X8780Y4010D02*
X16380D01*
X8090Y3320D02*
X8780Y4010D01*
X11090Y690D02*
X12000Y1600D01*
X14600D02*
X15150Y2150D01*
X12000Y1600D02*
X14600D01*
X15640Y5530D02*
X17390Y7280D01*
X7232Y5530D02*
X15640D01*
X4655Y2952D02*
X7232Y5530D01*
X7410Y5040D02*
X16460D01*
X1956Y2340D02*
X4710D01*
X7410Y5040*
X16460D02*
X18510Y7090D01*
X16200Y9580D02*
X17190Y10570D01*
X18173D02*
X18510Y10233D01*
X17190Y10570D02*
X18173D01*
X994Y1377D02*
X1956Y2340D01*
X7680Y9580D02*
X16200D01*
X6540Y7950D02*
X7730Y9140D01*
X16450D02*
X17345Y10035D01*
X7730Y9140D02*
X16450D01*
X6540Y8440D02*
X7680Y9580D01*
X17345Y10035D02*
X17350D01*
X994Y2952D02*
X4655D01*
X19620Y6300D02*
X20694Y7374D01*
X26190*
X19360Y6500D02*
X21234Y8374D01*
X26190*
X19070Y6700D02*
X21744Y9374D01*
X26190*
X22293Y10374D02*
X26190D01*
X18810Y6890D02*
X22293Y10374D01*
G54D78*
X3562Y11932D02*
X4425Y12795D01*
X3562Y7230D02*
Y11932D01*
Y6170D02*
Y7230D01*
G54D84*
X15980Y7050D03*
X23350Y12640D03*
X26630Y2360D03*
X5860Y15090D03*
X2990Y1110D03*
G54D85*
X9090Y690D03*
X11090D03*
X12090D03*
X8090D03*
X26377Y9374D03*
Y8374D03*
Y7374D03*
Y10374D03*
G54D86*
X12879Y10236D03*
X21740Y840D03*
G54D87*
X692Y15393D03*
Y10196D03*
X4444Y12795D03*
G54D89*
X994Y531D03*
Y3799D03*
G54D90*
X994Y1377D03*
Y2165D03*
G54D91*
X994Y2952D03*
G54D92*
X25984Y13279D03*
G54D93*
X845Y8393D03*
Y4992D03*
G54D94*
X2491Y8393D03*
Y4992D03*
G54D96*
X15023Y14763D03*
X14023D03*
X22110D03*
X21110D03*
X7374Y14657D03*
G54D98*
X26377Y5374D03*
G54D100*
X19890Y5560D03*
X12460Y4700D03*
X13570Y4680D03*
X9190Y4520D03*
X5403Y8946D03*
X6540Y8440D03*
Y7950D03*
X17350Y10035D03*
X14830Y8600D03*
X15409Y5995D03*
X13790Y5995D03*
X11900Y7190D03*
Y7690D03*
X12470Y7100D03*
X8340Y10960D03*
X3562Y6170D03*
Y7230D03*
X24680Y7870D03*
X22340Y10650D03*
X18800D03*
X17430Y8460D03*
X17680Y3100D03*
X24100Y2000D03*
X15040Y370D03*
X19620Y6300D03*
X18510Y10233D03*
X19360Y6500D03*
X19070Y6700D03*
X18810Y6890D03*
X15150Y2150D03*
X18510Y7090D03*
X17390Y7280D03*
X9160Y8000D03*
M02*