%FSLAX24Y24*%
%MOIN*%
%SFA1B1*%

%IPPOS*%
%ADD15C,0.010000*%
%ADD78C,0.031496*%
%ADD85C,0.067913*%
%ADD86R,0.067913X0.067913*%
%ADD88R,0.109252X0.109252*%
%ADD92C,0.074803*%
%ADD97R,0.064960X0.064960*%
%ADD100C,0.019685*%
%LNpeoplecounter-1*%
%LPD*%
G36*
X27256Y16036D02*
X27313Y16012D01*
X27364Y15978*
X27407Y15935*
X27441Y15884*
X27465Y15827*
X27477Y15767*
Y15736*
Y393*
Y362*
X27465Y302*
X27441Y245*
X27407Y194*
X27364Y151*
X27313Y117*
X27256Y93*
X27196Y81*
X27165*
X393*
X362*
X302Y93*
X245Y117*
X194Y151*
X151Y194*
X117Y245*
X93Y302*
X81Y362*
Y393*
Y15736*
Y15767*
X93Y15827*
X117Y15884*
X151Y15935*
X194Y15978*
X245Y16012*
X302Y16036*
X362Y16048*
X393*
X27196*
X27256Y16036*
G37*
%LNpeoplecounter-2*%
%LPC*%
G36*
X8418Y15994D02*
X8329D01*
X8244Y15971*
X8167Y15926*
X8104Y15864*
X8060Y15787*
X8037Y15701*
Y15613*
X8060Y15527*
X8104Y15450*
X8167Y15388*
X8244Y15343*
X8329Y15320*
X8418*
X8503Y15343*
X8580Y15388*
X8643Y15450*
X8687Y15527*
X8710Y15613*
Y15701*
X8687Y15787*
X8643Y15864*
X8580Y15926*
X8503Y15971*
X8418Y15994*
G37*
G36*
X7418D02*
X7329D01*
X7244Y15971*
X7167Y15926*
X7104Y15864*
X7060Y15787*
X7037Y15701*
Y15613*
X7060Y15527*
X7104Y15450*
X7167Y15388*
X7244Y15343*
X7329Y15320*
X7418*
X7503Y15343*
X7580Y15388*
X7643Y15450*
X7687Y15527*
X7710Y15613*
Y15701*
X7687Y15787*
X7643Y15864*
X7580Y15926*
X7503Y15971*
X7418Y15994*
G37*
G36*
X756Y15877D02*
X629D01*
X506Y15844*
X395Y15781*
X305Y15690*
X241Y15580*
X208Y15457*
Y15329*
X241Y15206*
X305Y15096*
X395Y15006*
X506Y14942*
X629Y14909*
X756*
X879Y14942*
X990Y15006*
X1080Y15096*
X1144Y15206*
X1177Y15329*
Y15457*
X1144Y15580*
X1080Y15690*
X990Y15781*
X879Y15844*
X756Y15877*
G37*
G36*
X5932Y15643D02*
X5787D01*
X5646Y15605*
X5520Y15532*
X5417Y15429*
X5344Y15303*
X5306Y15162*
Y15017*
X5344Y14876*
X5417Y14750*
X5520Y14647*
X5646Y14574*
X5787Y14536*
X5932*
X6073Y14574*
X6199Y14647*
X6302Y14750*
X6375Y14876*
X6413Y15017*
Y15162*
X6375Y15303*
X6302Y15429*
X6199Y15532*
X6073Y15605*
X5932Y15643*
G37*
G36*
X23154Y15100D02*
X23065D01*
X22980Y15077*
X22903Y15033*
X22840Y14970*
X22796Y14893*
X22773Y14808*
Y14719*
X22796Y14633*
X22840Y14557*
X22903Y14494*
X22980Y14450*
X23065Y14427*
X23154*
X23240Y14450*
X23316Y14494*
X23379Y14557*
X23423Y14633*
X23446Y14719*
Y14808*
X23423Y14893*
X23379Y14970*
X23316Y15033*
X23240Y15077*
X23154Y15100*
G37*
G36*
X22154D02*
X22065D01*
X21980Y15077*
X21903Y15033*
X21840Y14970*
X21796Y14893*
X21773Y14808*
Y14719*
X21796Y14633*
X21840Y14557*
X21903Y14494*
X21980Y14450*
X22065Y14427*
X22154*
X22240Y14450*
X22316Y14494*
X22379Y14557*
X22423Y14633*
X22446Y14719*
Y14808*
X22423Y14893*
X22379Y14970*
X22316Y15033*
X22240Y15077*
X22154Y15100*
G37*
G36*
X21154D02*
X21065D01*
X20980Y15077*
X20903Y15033*
X20840Y14970*
X20796Y14893*
X20773Y14808*
Y14719*
X20796Y14633*
X20840Y14557*
X20903Y14494*
X20980Y14450*
X21065Y14427*
X21154*
X21240Y14450*
X21316Y14494*
X21379Y14557*
X21423Y14633*
X21446Y14719*
Y14808*
X21423Y14893*
X21379Y14970*
X21316Y15033*
X21240Y15077*
X21154Y15100*
G37*
G36*
X20154D02*
X20065D01*
X19980Y15077*
X19903Y15033*
X19840Y14970*
X19796Y14893*
X19773Y14808*
Y14719*
X19796Y14633*
X19840Y14557*
X19903Y14494*
X19980Y14450*
X20065Y14427*
X20154*
X20240Y14450*
X20316Y14494*
X20379Y14557*
X20423Y14633*
X20446Y14719*
Y14808*
X20423Y14893*
X20379Y14970*
X20316Y15033*
X20240Y15077*
X20154Y15100*
G37*
G36*
X19154D02*
X19065D01*
X18980Y15077*
X18903Y15033*
X18840Y14970*
X18796Y14893*
X18773Y14808*
Y14719*
X18796Y14633*
X18840Y14557*
X18903Y14494*
X18980Y14450*
X19065Y14427*
X19154*
X19240Y14450*
X19316Y14494*
X19379Y14557*
X19423Y14633*
X19446Y14719*
Y14808*
X19423Y14893*
X19379Y14970*
X19316Y15033*
X19240Y15077*
X19154Y15100*
G37*
G36*
X16067D02*
X15979D01*
X15893Y15077*
X15816Y15033*
X15754Y14970*
X15710Y14893*
X15687Y14808*
Y14719*
X15710Y14633*
X15754Y14557*
X15816Y14494*
X15893Y14450*
X15979Y14427*
X16067*
X16153Y14450*
X16230Y14494*
X16292Y14557*
X16337Y14633*
X16360Y14719*
Y14808*
X16337Y14893*
X16292Y14970*
X16230Y15033*
X16153Y15077*
X16067Y15100*
G37*
G36*
X15067D02*
X14979D01*
X14893Y15077*
X14816Y15033*
X14754Y14970*
X14710Y14893*
X14687Y14808*
Y14719*
X14710Y14633*
X14754Y14557*
X14816Y14494*
X14893Y14450*
X14979Y14427*
X15067*
X15153Y14450*
X15230Y14494*
X15292Y14557*
X15337Y14633*
X15360Y14719*
Y14808*
X15337Y14893*
X15292Y14970*
X15230Y15033*
X15153Y15077*
X15067Y15100*
G37*
G36*
X14067D02*
X13979D01*
X13893Y15077*
X13816Y15033*
X13754Y14970*
X13710Y14893*
X13687Y14808*
Y14719*
X13710Y14633*
X13754Y14557*
X13816Y14494*
X13893Y14450*
X13979Y14427*
X14067*
X14153Y14450*
X14230Y14494*
X14292Y14557*
X14337Y14633*
X14360Y14719*
Y14808*
X14337Y14893*
X14292Y14970*
X14230Y15033*
X14153Y15077*
X14067Y15100*
G37*
G36*
X13067D02*
X12979D01*
X12893Y15077*
X12816Y15033*
X12754Y14970*
X12710Y14893*
X12687Y14808*
Y14719*
X12710Y14633*
X12754Y14557*
X12816Y14494*
X12893Y14450*
X12979Y14427*
X13067*
X13153Y14450*
X13230Y14494*
X13292Y14557*
X13337Y14633*
X13360Y14719*
Y14808*
X13337Y14893*
X13292Y14970*
X13230Y15033*
X13153Y15077*
X13067Y15100*
G37*
G36*
X12067D02*
X11979D01*
X11893Y15077*
X11816Y15033*
X11754Y14970*
X11710Y14893*
X11687Y14808*
Y14719*
X11710Y14633*
X11754Y14557*
X11816Y14494*
X11893Y14450*
X11979Y14427*
X12067*
X12153Y14450*
X12230Y14494*
X12292Y14557*
X12337Y14633*
X12360Y14719*
Y14808*
X12337Y14893*
X12292Y14970*
X12230Y15033*
X12153Y15077*
X12067Y15100*
G37*
G36*
X7418Y14994D02*
X7329D01*
X7244Y14971*
X7167Y14926*
X7104Y14864*
X7060Y14787*
X7037Y14701*
Y14613*
X7060Y14527*
X7104Y14450*
X7167Y14388*
X7244Y14343*
X7329Y14320*
X7418*
X7503Y14343*
X7580Y14388*
X7643Y14450*
X7687Y14527*
X7710Y14613*
Y14701*
X7687Y14787*
X7643Y14864*
X7580Y14926*
X7503Y14971*
X7418Y14994*
G37*
G36*
X4508Y15129D02*
X4381D01*
X4257Y15096*
X4147Y15033*
X4057Y14942*
X3993Y14832*
X3960Y14709*
Y14581*
X3993Y14458*
X4057Y14348*
X4147Y14258*
X4257Y14194*
X4381Y14161*
X4508*
X4631Y14194*
X4742Y14258*
X4832Y14348*
X4896Y14458*
X4929Y14581*
Y14709*
X4896Y14832*
X4832Y14942*
X4742Y15033*
X4631Y15096*
X4508Y15129*
G37*
G36*
X26049Y15773D02*
X25919D01*
X25793Y15739*
X25680Y15674*
X25588Y15582*
X25523Y15470*
X25490Y15344*
Y15214*
X25523Y15088*
X25536Y15067*
X24267Y13797*
X24229Y13741*
X24216Y13675*
Y9671*
X22753Y8208*
X22736*
X22656Y8175*
X22594Y8113*
X22589Y8099*
X22535*
X22525Y8123*
X22463Y8185*
X22383Y8218*
X22296*
X22216Y8185*
X22189Y8158*
X22139Y8179*
Y10534*
X22180Y10546*
X22189Y10546*
X22238Y10498*
X22304Y10470*
X22375*
X22441Y10498*
X22491Y10548*
X22519Y10614*
Y10685*
X22491Y10751*
X22441Y10801*
X22375Y10829*
X22304*
X22238Y10801*
X22223Y10786*
X22167Y10801*
X22165Y10809*
X22737Y11382*
X22782Y11440*
X22810Y11507*
X22819Y11580*
X22810Y11652*
X22782Y11719*
X22737Y11777*
X22377Y12137*
X22319Y12182*
X22252Y12210*
X22180Y12219*
X18680*
X18607Y12210*
X18540Y12182*
X18482Y12137*
X18152Y11807*
X17672Y11327*
X17627Y11269*
X17599Y11202*
X17590Y11130*
Y8623*
X17540Y8603*
X17531Y8611*
X17465Y8639*
X17394*
X17328Y8611*
X17278Y8561*
X17250Y8495*
Y8424*
X17278Y8358*
X17328Y8308*
X17394Y8280*
X17465*
X17531Y8308*
X17540Y8316*
X17590Y8296*
Y7395*
X17549Y7383*
X17540Y7383*
X17491Y7431*
X17425Y7459*
X17354*
X17288Y7431*
X17238Y7381*
X17210Y7315*
Y7244*
X17238Y7178*
X17288Y7128*
X17354Y7100*
X17425*
X17491Y7128*
X17540Y7176*
X17549Y7176*
X17590Y7164*
Y6250*
X17599Y6177*
X17627Y6110*
X17672Y6052*
X18282Y5442*
X18340Y5397*
X18407Y5369*
X18480Y5360*
X19580*
X19652Y5369*
X19719Y5397*
X19764Y5432*
X19788Y5408*
X19854Y5380*
X19925*
X19991Y5408*
X20041Y5458*
X20069Y5524*
Y5595*
X20041Y5661*
X19991Y5711*
X19925Y5739*
X19854*
X19841Y5733*
X19822Y5779*
X19777Y5837*
X19719Y5882*
X19652Y5910*
X19580Y5919*
X18595*
X18149Y6365*
Y8380*
X18520*
X18592Y8389*
X18659Y8417*
X18717Y8462*
X18762Y8520*
X18790Y8587*
X18799Y8660*
X18790Y8732*
X18762Y8799*
X18717Y8857*
X18659Y8902*
X18592Y8930*
X18520Y8939*
X18149*
Y11014*
X18547Y11412*
X18774Y11638*
X18817Y11610*
X18810Y11595*
Y11524*
X18838Y11458*
X18888Y11408*
X18954Y11380*
X19025*
X19091Y11408*
X19141Y11458*
X19169Y11524*
Y11595*
X19159Y11618*
X19187Y11660*
X22064*
X22144Y11580*
X21662Y11097*
X21617Y11039*
X21589Y10972*
X21580Y10900*
Y7790*
X21580Y7785*
X21533Y7761*
X20393Y8901*
Y9314*
X20405Y9326*
X20438Y9406*
Y9493*
X20405Y9573*
X20343Y9635*
X20263Y9668*
X20176*
X20096Y9635*
X20034Y9573*
X20001Y9493*
Y9406*
X20034Y9326*
X20046Y9314*
Y8830*
X20059Y8763*
X20097Y8707*
X25566Y3238*
Y1269*
X25562Y1268*
X25457Y1207*
X25372Y1122*
X25311Y1017*
X25280Y900*
Y779*
X25311Y662*
X25372Y557*
X25457Y472*
X25562Y411*
X25679Y380*
X25800*
X25917Y411*
X26022Y472*
X26107Y557*
X26168Y662*
X26199Y779*
Y900*
X26168Y1017*
X26107Y1122*
X26022Y1207*
X25917Y1268*
X25913Y1269*
Y3310*
X25900Y3376*
X25862Y3432*
X22411Y6883*
X22435Y6930*
X22440Y6930*
X24000*
X24072Y6939*
X24139Y6967*
X24197Y7012*
X24667Y7482*
X24712Y7540*
X24740Y7607*
X24749Y7680*
X24746Y7703*
X24781Y7718*
X24831Y7768*
X24859Y7834*
Y7905*
X24831Y7971*
X24781Y8021*
X24715Y8049*
X24644*
X24578Y8021*
X24528Y7971*
X24520Y7953*
X24470Y7959*
X24397Y7950*
X24330Y7922*
X24272Y7877*
X23884Y7489*
X22577*
X22540Y7533*
X22548Y7562*
X22551Y7565*
X22613Y7552*
X23056*
X23122Y7565*
X23178Y7603*
X25032Y9457*
X25070Y9513*
X25083Y9580*
Y13123*
X25784Y13824*
X25793Y13819*
X25919Y13785*
X26049*
X26174Y13819*
X26287Y13884*
X26379Y13976*
X26444Y14088*
X26478Y14214*
Y14344*
X26444Y14470*
X26379Y14582*
X26287Y14674*
X26174Y14739*
X26123Y14753*
Y14805*
X26174Y14819*
X26287Y14884*
X26379Y14976*
X26444Y15088*
X26478Y15214*
Y15344*
X26444Y15470*
X26379Y15582*
X26287Y15674*
X26174Y15739*
X26049Y15773*
G37*
G36*
X26033Y13655D02*
X25934D01*
X25839Y13629*
X25753Y13580*
X25683Y13510*
X25633Y13424*
X25608Y13329*
Y13230*
X25633Y13134*
X25683Y13048*
X25753Y12978*
X25839Y12929*
X25934Y12903*
X26033*
X26129Y12929*
X26215Y12978*
X26285Y13048*
X26334Y13134*
X26360Y13230*
Y13329*
X26334Y13424*
X26285Y13510*
X26215Y13580*
X26129Y13629*
X26033Y13655*
G37*
G36*
X4508Y13279D02*
X4381D01*
X4257Y13246*
X4147Y13182*
X4057Y13092*
X3993Y12982*
X3960Y12859*
Y12731*
X3993Y12608*
X4057Y12497*
X4147Y12407*
X4257Y12344*
X4381Y12311*
X4508*
X4631Y12344*
X4742Y12407*
X4832Y12497*
X4896Y12608*
X4929Y12731*
Y12859*
X4896Y12982*
X4832Y13092*
X4742Y13182*
X4631Y13246*
X4508Y13279*
G37*
G36*
X23422Y13193D02*
X23277D01*
X23136Y13155*
X23010Y13082*
X22907Y12979*
X22834Y12853*
X22796Y12712*
Y12567*
X22834Y12426*
X22907Y12300*
X23010Y12197*
X23136Y12124*
X23277Y12086*
X23422*
X23563Y12124*
X23689Y12197*
X23792Y12300*
X23865Y12426*
X23903Y12567*
Y12712*
X23865Y12853*
X23792Y12979*
X23689Y13082*
X23563Y13155*
X23422Y13193*
G37*
G36*
X8375Y11139D02*
X8304D01*
X8238Y11111*
X8188Y11061*
X8160Y10995*
Y10924*
X8188Y10858*
X8238Y10808*
X8304Y10780*
X8375*
X8441Y10808*
X8491Y10858*
X8519Y10924*
Y10995*
X8491Y11061*
X8441Y11111*
X8375Y11139*
G37*
G36*
X18545Y10412D02*
X18474D01*
X18408Y10385*
X18358Y10335*
X18330Y10269*
Y10198*
X18358Y10132*
X18408Y10081*
X18474Y10054*
X18545*
X18611Y10081*
X18661Y10132*
X18689Y10198*
Y10269*
X18661Y10335*
X18611Y10385*
X18545Y10412*
G37*
G36*
X26423Y10720D02*
X26332D01*
X26244Y10696*
X26165Y10651*
X26100Y10586*
X26055Y10507*
X26031Y10419*
Y10328*
X26055Y10240*
X26100Y10161*
X26165Y10096*
X26244Y10051*
X26332Y10027*
X26423*
X26511Y10051*
X26590Y10096*
X26655Y10161*
X26700Y10240*
X26724Y10328*
Y10419*
X26700Y10507*
X26655Y10586*
X26590Y10651*
X26511Y10696*
X26423Y10720*
G37*
G36*
X12925Y10582D02*
X12834D01*
X12746Y10558*
X12667Y10513*
X12602Y10448*
X12557Y10369*
X12533Y10281*
Y10190*
X12557Y10102*
X12602Y10023*
X12667Y9959*
X12746Y9913*
X12834Y9889*
X12925*
X13013Y9913*
X13092Y9959*
X13157Y10023*
X13202Y10102*
X13226Y10190*
Y10281*
X13202Y10369*
X13157Y10448*
X13092Y10513*
X13013Y10558*
X12925Y10582*
G37*
G36*
X17385Y10214D02*
X17314D01*
X17248Y10187*
X17198Y10136*
X17170Y10070*
Y9999*
X17198Y9933*
X17248Y9883*
X17314Y9856*
X17385*
X17451Y9883*
X17501Y9933*
X17529Y9999*
Y10070*
X17501Y10136*
X17451Y10187*
X17385Y10214*
G37*
G36*
X15940Y10695D02*
X15819D01*
X15702Y10664*
X15597Y10603*
X15512Y10518*
X15451Y10413*
X15420Y10296*
Y10175*
X15451Y10058*
X15453Y10055*
X14731Y9333*
X11500*
X11433Y9320*
X11377Y9282*
X10742Y8647*
X10705Y8591*
X10691Y8525*
Y3420*
X10680Y3408*
X10646Y3328*
Y3241*
X10680Y3160*
X10741Y3099*
X10821Y3066*
X10908*
X10989Y3099*
X11050Y3160*
X11083Y3241*
Y3328*
X11050Y3408*
X11038Y3420*
Y8453*
X11571Y8986*
X14803*
X14870Y8999*
X14926Y9037*
X15698Y9810*
X15702Y9807*
X15819Y9776*
X15940*
X16057Y9807*
X16162Y9868*
X16247Y9954*
X16308Y10058*
X16339Y10175*
Y10296*
X16308Y10413*
X16247Y10518*
X16162Y10603*
X16057Y10664*
X15940Y10695*
G37*
G36*
X14940D02*
X14819D01*
X14702Y10664*
X14597Y10603*
X14512Y10518*
X14451Y10413*
X14420Y10296*
Y10175*
X14451Y10058*
X14453Y10055*
X14191Y9793*
X11230*
X11163Y9780*
X11107Y9742*
X10257Y8892*
X10219Y8836*
X10206Y8770*
Y3155*
X10194Y3143*
X10161Y3063*
Y2976*
X10194Y2896*
X10256Y2834*
X10336Y2801*
X10423*
X10503Y2834*
X10565Y2896*
X10598Y2976*
Y3063*
X10565Y3143*
X10553Y3155*
Y8698*
X11301Y9446*
X14263*
X14330Y9459*
X14386Y9497*
X14698Y9810*
X14702Y9807*
X14819Y9776*
X14940*
X15057Y9807*
X15162Y9868*
X15247Y9954*
X15308Y10058*
X15339Y10175*
Y10296*
X15308Y10413*
X15247Y10518*
X15162Y10603*
X15057Y10664*
X14940Y10695*
G37*
G36*
X756Y10681D02*
X629D01*
X506Y10648*
X395Y10584*
X305Y10494*
X241Y10383*
X208Y10260*
Y10133*
X241Y10009*
X305Y9899*
X395Y9809*
X506Y9745*
X629Y9712*
X756*
X879Y9745*
X990Y9809*
X1080Y9899*
X1144Y10009*
X1177Y10133*
Y10260*
X1144Y10383*
X1080Y10494*
X990Y10584*
X879Y10648*
X756Y10681*
G37*
G36*
X26423Y9720D02*
X26332D01*
X26244Y9696*
X26165Y9651*
X26100Y9586*
X26055Y9507*
X26031Y9419*
Y9328*
X26055Y9240*
X26100Y9161*
X26165Y9096*
X26244Y9051*
X26332Y9027*
X26423*
X26511Y9051*
X26590Y9096*
X26655Y9161*
X26700Y9240*
X26724Y9328*
Y9419*
X26700Y9507*
X26655Y9586*
X26590Y9651*
X26511Y9696*
X26423Y9720*
G37*
G36*
X5439Y9125D02*
X5368D01*
X5302Y9098*
X5252Y9048*
X5224Y8982*
Y8911*
X5252Y8845*
X5302Y8794*
X5368Y8767*
X5439*
X5505Y8794*
X5555Y8845*
X5582Y8911*
Y8982*
X5555Y9048*
X5505Y9098*
X5439Y9125*
G37*
G36*
X11845Y8869D02*
X11774D01*
X11708Y8841*
X11658Y8791*
X11630Y8725*
Y8654*
X11658Y8588*
X11708Y8538*
X11774Y8510*
X11845*
X11911Y8538*
X11961Y8588*
X11989Y8654*
Y8725*
X11961Y8791*
X11911Y8841*
X11845Y8869*
G37*
G36*
X14865Y8779D02*
X14794D01*
X14728Y8751*
X14678Y8701*
X14650Y8635*
Y8564*
X14678Y8498*
X14728Y8448*
X14794Y8420*
X14865*
X14931Y8448*
X14981Y8498*
X15009Y8564*
Y8635*
X14981Y8701*
X14931Y8751*
X14865Y8779*
G37*
G36*
X8818Y15102D02*
X7929D01*
Y14212*
X8094*
Y12365*
X8103Y12293*
X8131Y12226*
X8176Y12168*
X8732Y11612*
X8790Y11567*
X8857Y11539*
X8930Y11530*
X16184*
X16490Y11224*
Y8555*
X16234Y8299*
X14655*
X14564Y8391*
Y8604*
X14554Y8676*
X14526Y8744*
X14482Y8802*
X14424Y8846*
X14356Y8874*
X14284Y8884*
X14211Y8874*
X14144Y8846*
X14086Y8802*
X14042Y8744*
X14014Y8676*
X14004Y8604*
Y8275*
X14014Y8203*
X14042Y8135*
X14086Y8077*
X14342Y7822*
X14400Y7777*
X14467Y7749*
X14540Y7740*
X16350*
X16422Y7749*
X16489Y7777*
X16547Y7822*
X16967Y8242*
X17012Y8300*
X17040Y8367*
X17049Y8440*
Y11340*
X17040Y11412*
X17012Y11479*
X16967Y11537*
X16497Y12007*
X16439Y12052*
X16372Y12080*
X16300Y12089*
X9045*
X8653Y12481*
Y14212*
X8818*
Y15102*
G37*
G36*
X6575Y8619D02*
X6504D01*
X6438Y8591*
X6388Y8541*
X6360Y8475*
Y8404*
X6388Y8338*
X6438Y8288*
X6504Y8260*
X6575*
X6641Y8288*
X6691Y8338*
X6719Y8404*
Y8475*
X6691Y8541*
X6641Y8591*
X6575Y8619*
G37*
G36*
X2707Y8636D02*
X2274D01*
X2181Y8617*
X2102Y8565*
X2050Y8486*
X2031Y8393*
X2050Y8300*
X2102Y8222*
X2181Y8169*
X2274Y8150*
X2707*
X2800Y8169*
X2879Y8222*
X2931Y8300*
X2950Y8393*
X2931Y8486*
X2879Y8565*
X2800Y8617*
X2707Y8636*
G37*
G36*
X1002D02*
X687D01*
X595Y8617*
X516Y8565*
X463Y8486*
X445Y8393*
X463Y8300*
X516Y8222*
X595Y8169*
X687Y8150*
X1002*
X1095Y8169*
X1174Y8222*
X1227Y8300*
X1245Y8393*
X1227Y8486*
X1174Y8565*
X1095Y8617*
X1002Y8636*
G37*
G36*
X26423Y8720D02*
X26332D01*
X26244Y8696*
X26165Y8651*
X26100Y8586*
X26055Y8507*
X26031Y8419*
Y8328*
X26055Y8240*
X26100Y8161*
X26165Y8096*
X26244Y8051*
X26332Y8027*
X26423*
X26511Y8051*
X26590Y8096*
X26655Y8161*
X26700Y8240*
X26724Y8328*
Y8419*
X26700Y8507*
X26655Y8586*
X26590Y8651*
X26511Y8696*
X26423Y8720*
G37*
G36*
X9195Y8179D02*
X9124D01*
X9058Y8151*
X9008Y8101*
X8980Y8035*
Y7964*
X9008Y7898*
X9058Y7848*
X9124Y7820*
X9195*
X9261Y7848*
X9311Y7898*
X9339Y7964*
Y8035*
X9311Y8101*
X9261Y8151*
X9195Y8179*
G37*
G36*
X6575Y8129D02*
X6504D01*
X6438Y8101*
X6388Y8051*
X6360Y7985*
Y7914*
X6388Y7848*
X6438Y7798*
X6504Y7770*
X6575*
X6641Y7798*
X6691Y7848*
X6719Y7914*
Y7985*
X6691Y8051*
X6641Y8101*
X6575Y8129*
G37*
G36*
X2343Y8078D02*
X2244D01*
X2153Y8040*
X2084Y7971*
X2046Y7880*
Y7781*
X2084Y7690*
X2153Y7620*
X2244Y7582*
X2343*
X2434Y7620*
X2504Y7690*
X2542Y7781*
Y7880*
X2504Y7971*
X2434Y8040*
X2343Y8078*
G37*
G36*
X11935Y7869D02*
X11864D01*
X11798Y7841*
X11748Y7791*
X11720Y7725*
Y7654*
X11748Y7588*
X11798Y7538*
X11864Y7510*
X11935*
X12001Y7538*
X12051Y7588*
X12079Y7654*
Y7725*
X12051Y7791*
X12001Y7841*
X11935Y7869*
G37*
G36*
X3598Y7409D02*
X3527D01*
X3461Y7381*
X3411Y7331*
X3383Y7265*
Y7194*
X3411Y7128*
X3461Y7078*
X3527Y7050*
X3598*
X3664Y7078*
X3714Y7128*
X3742Y7194*
Y7265*
X3714Y7331*
X3664Y7381*
X3598Y7409*
G37*
G36*
X26423Y7720D02*
X26332D01*
X26244Y7696*
X26165Y7651*
X26100Y7586*
X26055Y7507*
X26031Y7419*
Y7328*
X26055Y7240*
X26100Y7161*
X26165Y7096*
X26244Y7051*
X26332Y7027*
X26423*
X26511Y7051*
X26590Y7096*
X26655Y7161*
X26700Y7240*
X26724Y7328*
Y7419*
X26700Y7507*
X26655Y7586*
X26590Y7651*
X26511Y7696*
X26423Y7720*
G37*
G36*
X11935Y7369D02*
X11864D01*
X11798Y7341*
X11748Y7291*
X11720Y7225*
Y7154*
X11748Y7088*
X11798Y7038*
X11864Y7010*
X11935*
X12001Y7038*
X12051Y7088*
X12079Y7154*
Y7225*
X12051Y7291*
X12001Y7341*
X11935Y7369*
G37*
G36*
X12505Y7279D02*
X12434D01*
X12368Y7251*
X12318Y7201*
X12290Y7135*
Y7064*
X12318Y6998*
X12368Y6948*
X12434Y6920*
X12505*
X12571Y6948*
X12621Y6998*
X12649Y7064*
Y7135*
X12621Y7201*
X12571Y7251*
X12505Y7279*
G37*
G36*
X16052Y7603D02*
X15907D01*
X15766Y7565*
X15640Y7492*
X15537Y7389*
X15464Y7263*
X15426Y7122*
Y6977*
X15464Y6836*
X15537Y6710*
X15640Y6607*
X15766Y6534*
X15907Y6496*
X16052*
X16193Y6534*
X16319Y6607*
X16422Y6710*
X16495Y6836*
X16533Y6977*
Y7122*
X16495Y7263*
X16422Y7389*
X16319Y7492*
X16193Y7565*
X16052Y7603*
G37*
G36*
X18545Y7269D02*
X18474D01*
X18408Y7241*
X18358Y7191*
X18330Y7125*
Y7054*
X18358Y6988*
X18408Y6938*
X18474Y6910*
X18545*
X18580Y6925*
X18630Y6892*
Y6854*
X18658Y6789*
X18708Y6738*
X18774Y6711*
X18845*
X18849Y6712*
X18890Y6685*
Y6664*
X18918Y6598*
X18968Y6548*
X19034Y6520*
X19105*
X19130Y6531*
X19180Y6498*
Y6464*
X19208Y6398*
X19258Y6348*
X19324Y6320*
X19395*
X19440Y6285*
Y6264*
X19468Y6198*
X19518Y6148*
X19584Y6120*
X19655*
X19721Y6148*
X19771Y6198*
X19799Y6264*
Y6335*
X19771Y6401*
X19721Y6451*
X19655Y6479*
X19584*
X19539Y6514*
Y6535*
X19511Y6601*
X19461Y6651*
X19395Y6679*
X19324*
X19299Y6668*
X19249Y6701*
Y6735*
X19221Y6801*
X19171Y6851*
X19105Y6879*
X19034*
X19030Y6877*
X18989Y6905*
Y6926*
X18961Y6991*
X18911Y7042*
X18845Y7069*
X18774*
X18739Y7054*
X18689Y7088*
Y7125*
X18661Y7191*
X18611Y7241*
X18545Y7269*
G37*
G36*
X2185Y7304D02*
X2114D01*
X2048Y7277*
X1998Y7227*
X1970Y7161*
Y7090*
X1998Y7024*
X2018Y7003*
X2045Y6971*
X2018Y6938*
X1998Y6917*
X1970Y6851*
Y6780*
X1998Y6714*
X2020Y6692*
X1998Y6670*
X1970Y6605*
Y6533*
X1998Y6468*
X2018Y6447*
X2045Y6414*
X2018Y6382*
X1998Y6361*
X1970Y6295*
Y6224*
X1998Y6158*
X2048Y6108*
X2114Y6080*
X2185*
X2251Y6108*
X2301Y6158*
X2328Y6224*
Y6295*
X2301Y6361*
X2280Y6382*
X2253Y6414*
X2280Y6447*
X2301Y6468*
X2328Y6533*
Y6605*
X2301Y6670*
X2279Y6692*
X2301Y6714*
X2328Y6780*
Y6851*
X2301Y6917*
X2280Y6938*
X2253Y6971*
X2280Y7003*
X2301Y7024*
X2328Y7090*
Y7161*
X2301Y7227*
X2251Y7277*
X2185Y7304*
G37*
G36*
X3598Y6349D02*
X3527D01*
X3461Y6321*
X3411Y6271*
X3383Y6205*
Y6134*
X3411Y6068*
X3461Y6018*
X3527Y5990*
X3598*
X3664Y6018*
X3714Y6068*
X3742Y6134*
Y6205*
X3714Y6271*
X3664Y6321*
X3598Y6349*
G37*
G36*
X13826Y6174D02*
X13755D01*
X13689Y6147*
X13638Y6097*
X13611Y6031*
Y5960*
X13638Y5894*
X13689Y5843*
X13755Y5816*
X13826*
X13892Y5843*
X13942Y5894*
X13969Y5960*
Y6031*
X13942Y6097*
X13892Y6147*
X13826Y6174*
G37*
G36*
X15444Y6174D02*
X15373D01*
X15307Y6147*
X15257Y6097*
X15230Y6031*
Y5960*
X15257Y5894*
X15307Y5843*
X15373Y5816*
X15444*
X15510Y5843*
X15560Y5894*
X15588Y5960*
Y6031*
X15560Y6097*
X15510Y6147*
X15444Y6174*
G37*
G36*
X2343Y5803D02*
X2244D01*
X2153Y5765*
X2084Y5695*
X2046Y5604*
Y5505*
X2084Y5414*
X2153Y5344*
X2244Y5307*
X2343*
X2434Y5344*
X2504Y5414*
X2542Y5505*
Y5604*
X2504Y5695*
X2434Y5765*
X2343Y5803*
G37*
G36*
X26423Y5720D02*
X26332D01*
X26244Y5696*
X26165Y5651*
X26100Y5586*
X26055Y5507*
X26031Y5419*
Y5328*
X26055Y5240*
X26100Y5161*
X26165Y5096*
X26244Y5051*
X26332Y5027*
X26423*
X26511Y5051*
X26590Y5096*
X26655Y5161*
X26700Y5240*
X26724Y5328*
Y5419*
X26700Y5507*
X26655Y5586*
X26590Y5651*
X26511Y5696*
X26423Y5720*
G37*
G36*
X2707Y5234D02*
X2274D01*
X2181Y5216*
X2102Y5163*
X2050Y5085*
X2031Y4992*
X2050Y4899*
X2102Y4820*
X2181Y4767*
X2274Y4749*
X2707*
X2800Y4767*
X2879Y4820*
X2931Y4899*
X2950Y4992*
X2931Y5085*
X2879Y5163*
X2800Y5216*
X2707Y5234*
G37*
G36*
X1002D02*
X687D01*
X595Y5216*
X516Y5163*
X463Y5085*
X445Y4992*
X463Y4899*
X516Y4820*
X595Y4767*
X687Y4749*
X1002*
X1095Y4767*
X1174Y4820*
X1227Y4899*
X1245Y4992*
X1227Y5085*
X1174Y5163*
X1095Y5216*
X1002Y5234*
G37*
G36*
X12495Y4879D02*
X12424D01*
X12358Y4851*
X12308Y4801*
X12280Y4735*
Y4664*
X12308Y4598*
X12358Y4548*
X12424Y4520*
X12495*
X12561Y4548*
X12611Y4598*
X12639Y4664*
Y4735*
X12611Y4801*
X12561Y4851*
X12495Y4879*
G37*
G36*
X13605Y4859D02*
X13534D01*
X13468Y4831*
X13418Y4781*
X13390Y4715*
Y4644*
X13418Y4578*
X13468Y4528*
X13534Y4500*
X13605*
X13671Y4528*
X13721Y4578*
X13749Y4644*
Y4715*
X13721Y4781*
X13671Y4831*
X13605Y4859*
G37*
G36*
X9225Y4699D02*
X9154D01*
X9088Y4671*
X9038Y4621*
X9010Y4555*
Y4484*
X9038Y4418*
X9088Y4368*
X9154Y4340*
X9225*
X9291Y4368*
X9341Y4418*
X9369Y4484*
Y4555*
X9341Y4621*
X9291Y4671*
X9225Y4699*
G37*
G36*
X22208Y4622D02*
X22137D01*
X22071Y4595*
X22021Y4545*
X21994Y4479*
Y4408*
X22021Y4342*
X22071Y4292*
X22137Y4264*
X22208*
X22274Y4292*
X22325Y4342*
X22352Y4408*
Y4479*
X22325Y4545*
X22274Y4595*
X22208Y4622*
G37*
G36*
X1040Y4155D02*
X947D01*
X856Y4131*
X775Y4084*
X709Y4017*
X662Y3936*
X637Y3846*
Y3752*
X662Y3661*
X709Y3580*
X775Y3514*
X856Y3467*
X947Y3442*
X1040*
X1131Y3467*
X1212Y3514*
X1279Y3580*
X1326Y3661*
X1350Y3752*
Y3846*
X1326Y3936*
X1279Y4017*
X1212Y4084*
X1131Y4131*
X1040Y4155*
G37*
G36*
X21979Y3641D02*
X21908D01*
X21842Y3614*
X21792Y3564*
X21765Y3498*
Y3427*
X21792Y3361*
X21842Y3311*
X21908Y3283*
X21979*
X22045Y3311*
X22096Y3361*
X22123Y3427*
Y3498*
X22096Y3564*
X22045Y3614*
X21979Y3641*
G37*
G36*
X21545Y3595D02*
X21474D01*
X21408Y3568*
X21358Y3517*
X21330Y3452*
Y3380*
X21358Y3315*
X21408Y3264*
X21474Y3237*
X21545*
X21611Y3264*
X21661Y3315*
X21689Y3380*
Y3452*
X21661Y3517*
X21611Y3568*
X21545Y3595*
G37*
G36*
X20011D02*
X19940D01*
X19874Y3568*
X19823Y3517*
X19796Y3452*
Y3380*
X19823Y3315*
X19874Y3264*
X19940Y3237*
X20011*
X20077Y3264*
X20127Y3315*
X20154Y3380*
Y3452*
X20127Y3517*
X20077Y3568*
X20011Y3595*
G37*
G36*
X17715Y3279D02*
X17644D01*
X17578Y3251*
X17528Y3201*
X17500Y3135*
Y3064*
X17528Y2998*
X17578Y2948*
X17644Y2920*
X17715*
X17781Y2948*
X17831Y2998*
X17859Y3064*
Y3135*
X17831Y3201*
X17781Y3251*
X17715Y3279*
G37*
G36*
X1030Y3230D02*
X957D01*
X886Y3211*
X823Y3174*
X772Y3123*
X735Y3059*
X716Y2989*
Y2916*
X735Y2845*
X772Y2782*
X823Y2730*
X886Y2694*
X957Y2675*
X1030*
X1101Y2694*
X1164Y2730*
X1216Y2782*
X1252Y2845*
X1271Y2916*
Y2989*
X1252Y3059*
X1216Y3123*
X1164Y3174*
X1101Y3211*
X1030Y3230*
G37*
G36*
X6885Y2529D02*
X6814D01*
X6748Y2501*
X6698Y2451*
X6670Y2385*
Y2314*
X6698Y2248*
X6748Y2198*
X6814Y2170*
X6885*
X6951Y2198*
X7001Y2248*
X7029Y2314*
Y2385*
X7001Y2451*
X6951Y2501*
X6885Y2529*
G37*
G36*
X9203Y6688D02*
X9116D01*
X9036Y6655*
X8974Y6593*
X8941Y6513*
Y6426*
X8974Y6346*
X9036Y6284*
X9116Y6251*
X9133*
X9496Y5888*
Y2490*
X9509Y2423*
X9547Y2367*
X9887Y2027*
X9943Y1989*
X10010Y1976*
X15014*
X15026Y1964*
X15106Y1931*
X15193*
X15273Y1964*
X15335Y2026*
X15368Y2106*
Y2193*
X15335Y2273*
X15273Y2335*
X15193Y2368*
X15106*
X15026Y2335*
X15014Y2323*
X10081*
X9843Y2561*
Y5960*
X9830Y6026*
X9792Y6082*
X9378Y6496*
Y6513*
X9345Y6593*
X9283Y6655*
X9203Y6688*
G37*
G36*
X1030Y2442D02*
X957D01*
X886Y2423*
X823Y2387*
X772Y2335*
X735Y2272*
X716Y2201*
Y2128*
X735Y2058*
X772Y1994*
X823Y1943*
X886Y1906*
X957Y1887*
X1030*
X1101Y1906*
X1164Y1943*
X1216Y1994*
X1252Y2058*
X1271Y2128*
Y2201*
X1252Y2272*
X1216Y2335*
X1164Y2387*
X1101Y2423*
X1030Y2442*
G37*
G36*
X18835Y10829D02*
X18764D01*
X18698Y10801*
X18648Y10751*
X18620Y10685*
Y10614*
X18648Y10548*
X18698Y10498*
X18764Y10470*
X18835*
X18865Y10483*
X18866Y10483*
X18911Y10448*
Y10386*
X18944Y10306*
X18956Y10294*
Y8510*
X18969Y8443*
X19007Y8387*
X23566Y3828*
Y1269*
X23562Y1268*
X23457Y1207*
X23372Y1122*
X23311Y1017*
X23280Y900*
Y779*
X23311Y662*
X23372Y557*
X23457Y472*
X23562Y411*
X23679Y380*
X23800*
X23917Y411*
X24022Y472*
X24107Y557*
X24168Y662*
X24199Y779*
Y900*
X24168Y1017*
X24107Y1122*
X24022Y1207*
X23917Y1268*
X23913Y1269*
Y1862*
X23963Y1883*
X23998Y1848*
X24064Y1820*
X24135*
X24201Y1848*
X24251Y1898*
X24279Y1964*
Y2035*
X24251Y2101*
X24201Y2151*
X24135Y2179*
X24064*
X23998Y2151*
X23963Y2116*
X23913Y2137*
Y3900*
X23900Y3966*
X23862Y4022*
X19303Y8581*
Y10294*
X19315Y10306*
X19348Y10386*
Y10473*
X19315Y10553*
X19253Y10615*
X19173Y10648*
X19086*
X19029Y10624*
X18979Y10652*
X18979Y10653*
Y10685*
X18951Y10751*
X18901Y10801*
X18835Y10829*
G37*
G36*
X26702Y2913D02*
X26557D01*
X26416Y2875*
X26290Y2802*
X26187Y2699*
X26114Y2573*
X26076Y2432*
Y2287*
X26114Y2146*
X26187Y2020*
X26290Y1917*
X26416Y1844*
X26557Y1806*
X26702*
X26843Y1844*
X26969Y1917*
X27072Y2020*
X27145Y2146*
X27183Y2287*
Y2432*
X27145Y2573*
X27072Y2699*
X26969Y2802*
X26843Y2875*
X26702Y2913*
G37*
G36*
X1030Y1655D02*
X957D01*
X886Y1636*
X823Y1600*
X772Y1548*
X735Y1485*
X716Y1414*
Y1341*
X735Y1270*
X772Y1207*
X823Y1155*
X886Y1119*
X957Y1100*
X1030*
X1101Y1119*
X1164Y1155*
X1216Y1207*
X1252Y1270*
X1271Y1341*
Y1414*
X1252Y1485*
X1216Y1548*
X1164Y1600*
X1101Y1636*
X1030Y1655*
G37*
G36*
X3062Y1663D02*
X2917D01*
X2776Y1625*
X2650Y1552*
X2547Y1449*
X2474Y1323*
X2436Y1182*
Y1037*
X2474Y896*
X2547Y770*
X2650Y667*
X2776Y594*
X2917Y556*
X3062*
X3203Y594*
X3329Y667*
X3432Y770*
X3505Y896*
X3543Y1037*
Y1182*
X3505Y1323*
X3432Y1449*
X3329Y1552*
X3203Y1625*
X3062Y1663*
G37*
G36*
X21785Y1186D02*
X21694D01*
X21606Y1162*
X21527Y1117*
X21462Y1052*
X21417Y973*
X21393Y885*
Y794*
X21417Y706*
X21462Y627*
X21527Y562*
X21606Y517*
X21694Y493*
X21785*
X21873Y517*
X21952Y562*
X22017Y627*
X22062Y706*
X22086Y794*
Y885*
X22062Y973*
X22017Y1052*
X21952Y1117*
X21873Y1162*
X21785Y1186*
G37*
G36*
X19733Y9468D02*
X19646D01*
X19566Y9435*
X19504Y9373*
X19471Y9293*
Y9206*
X19504Y9126*
X19516Y9114*
Y8760*
X19529Y8693*
X19567Y8637*
X24566Y3638*
Y1269*
X24562Y1268*
X24457Y1207*
X24372Y1122*
X24311Y1017*
X24280Y900*
Y779*
X24311Y662*
X24372Y557*
X24457Y472*
X24562Y411*
X24679Y380*
X24800*
X24917Y411*
X25022Y472*
X25107Y557*
X25168Y662*
X25199Y779*
Y900*
X25168Y1017*
X25107Y1122*
X25022Y1207*
X24917Y1268*
X24913Y1269*
Y3710*
X24900Y3776*
X24862Y3832*
X19863Y8831*
Y9114*
X19875Y9126*
X19908Y9206*
Y9293*
X19875Y9373*
X19813Y9435*
X19733Y9468*
G37*
G36*
X12135Y1036D02*
X12044D01*
X11956Y1012*
X11877Y967*
X11812Y902*
X11767Y823*
X11743Y735*
Y644*
X11767Y556*
X11812Y477*
X11877Y412*
X11956Y367*
X12044Y343*
X12135*
X12223Y367*
X12302Y412*
X12367Y477*
X12412Y556*
X12436Y644*
Y735*
X12412Y823*
X12367Y902*
X12302Y967*
X12223Y1012*
X12135Y1036*
G37*
G36*
X11135D02*
X11044D01*
X10956Y1012*
X10877Y967*
X10812Y902*
X10767Y823*
X10743Y735*
Y644*
X10767Y556*
X10812Y477*
X10877Y412*
X10956Y367*
X11044Y343*
X11135*
X11223Y367*
X11302Y412*
X11367Y477*
X11412Y556*
X11436Y644*
Y735*
X11412Y823*
X11367Y902*
X11302Y967*
X11223Y1012*
X11135Y1036*
G37*
G36*
X10135D02*
X10044D01*
X9956Y1012*
X9877Y967*
X9812Y902*
X9767Y823*
X9743Y735*
Y644*
X9767Y556*
X9812Y477*
X9877Y412*
X9956Y367*
X10044Y343*
X10135*
X10223Y367*
X10302Y412*
X10367Y477*
X10412Y556*
X10436Y644*
Y735*
X10412Y823*
X10367Y902*
X10302Y967*
X10223Y1012*
X10135Y1036*
G37*
G36*
X9135D02*
X9044D01*
X8956Y1012*
X8877Y967*
X8812Y902*
X8767Y823*
X8743Y735*
Y644*
X8767Y556*
X8812Y477*
X8877Y412*
X8956Y367*
X9044Y343*
X9135*
X9223Y367*
X9302Y412*
X9367Y477*
X9412Y556*
X9436Y644*
Y735*
X9412Y823*
X9367Y902*
X9302Y967*
X9223Y1012*
X9135Y1036*
G37*
G36*
X8135D02*
X8044D01*
X7956Y1012*
X7877Y967*
X7812Y902*
X7767Y823*
X7743Y735*
Y644*
X7767Y556*
X7812Y477*
X7877Y412*
X7956Y367*
X8044Y343*
X8135*
X8223Y367*
X8302Y412*
X8367Y477*
X8412Y556*
X8436Y644*
Y735*
X8412Y823*
X8367Y902*
X8302Y967*
X8223Y1012*
X8135Y1036*
G37*
G36*
X15075Y549D02*
X15004D01*
X14938Y521*
X14888Y471*
X14860Y405*
Y334*
X14888Y268*
X14938Y218*
X15004Y190*
X15075*
X15141Y218*
X15191Y268*
X15219Y334*
Y405*
X15191Y471*
X15141Y521*
X15075Y549*
G37*
G36*
X1040Y887D02*
X947D01*
X856Y863*
X775Y816*
X709Y750*
X662Y668*
X637Y578*
Y484*
X662Y394*
X709Y312*
X775Y246*
X856Y199*
X947Y175*
X1040*
X1131Y199*
X1212Y246*
X1279Y312*
X1326Y394*
X1350Y484*
Y578*
X1326Y668*
X1279Y750*
X1212Y816*
X1131Y863*
X1040Y887*
G37*
%LNpeoplecounter-3*%
%LPD*%
G54D15*
X10380Y8770D02*
X11230Y9620D01*
X10380Y3020D02*
Y8770D01*
X22780Y7990D02*
X24390Y9600D01*
Y13675D02*
X25797Y15082D01*
X24390Y9600D02*
Y13675D01*
X24910Y13195D02*
X25797Y14082D01*
X23056Y7726D02*
X24910Y9580D01*
Y13195*
X19690Y8760D02*
X24740Y3710D01*
Y840D02*
Y3710D01*
X19690Y8760D02*
Y9250D01*
X23740Y840D02*
Y3900D01*
X19130Y8510D02*
Y10430D01*
Y8510D02*
X23740Y3900D01*
X14263Y9620D02*
X14879Y10236D01*
X11230Y9620D02*
X14263D01*
X10865Y8525D02*
X11500Y9160D01*
X14803D02*
X15879Y10236D01*
X11500Y9160D02*
X14803D01*
X10865Y3284D02*
Y8525D01*
X9670Y2490D02*
Y5960D01*
X9160Y6470D02*
X9670Y5960D01*
Y2490D02*
X10010Y2150D01*
X15150*
X22613Y7726D02*
X23056D01*
X20220Y8830D02*
Y9450D01*
X25740Y840D02*
Y3310D01*
X20220Y8830D02*
X25740Y3310D01*
X22340Y8000D02*
X22613Y7726D01*
G54D78*
X14540Y8020D02*
X16350D01*
X16770Y8440D02*
Y11340D01*
X16350Y8020D02*
X16770Y8440D01*
X14284Y8275D02*
Y8604D01*
Y8275D02*
X14540Y8020D01*
X8374Y12365D02*
Y14657D01*
X8930Y11810D02*
X16300D01*
X8374Y12365D02*
X8930Y11810D01*
X16300D02*
X16770Y11340D01*
X17870Y6250D02*
X18480Y5640D01*
X17870Y6250D02*
Y11130D01*
X18350Y11610*
X18680Y11940*
X21860Y7790D02*
X22440Y7210D01*
X24000D02*
X24470Y7680D01*
X22440Y7210D02*
X24000D01*
X21860Y7790D02*
Y10900D01*
X17880Y8660D02*
X18520D01*
X18480Y5640D02*
X19580D01*
X21860Y10900D02*
X22540Y11580D01*
X22180Y11940D02*
X22540Y11580D01*
X18680Y11940D02*
X22180D01*
G54D85*
X15879Y10236D03*
X14879D03*
X13879D03*
X26377Y6374D03*
X25740Y840D03*
X24740D03*
X23740D03*
X22740D03*
G54D86*
X13090Y690D03*
G54D88*
X4444Y10944D03*
G54D92*
X25984Y12279D03*
Y14279D03*
Y15279D03*
G54D97*
X11023Y14763D03*
X18110D03*
X8374Y14657D03*
G54D100*
X10380Y3020D03*
X14110Y3530D03*
X17820Y4940D03*
X8580Y2320D03*
X10865Y3284D03*
X9760Y1630D03*
X14284Y8604D03*
X24010Y4050D03*
X24120Y3070D03*
X11380Y1630D03*
X18350Y11610D03*
X22540Y11580D03*
X18520Y8660D03*
X19580Y5640D03*
X24470Y7680D03*
X22780Y7990D03*
X22340Y8000D03*
X19130Y10430D03*
X19690Y9250D03*
X20220Y9450D03*
X15150Y2150D03*
X9160Y6470D03*
M02*