%FSLAX24Y24*%
%MOIN*%
%SFA1B1*%

%IPPOS*%
%AMD93*
4,1,8,0.025600,0.019700,-0.025600,0.019700,-0.035400,0.009800,-0.035400,-0.009800,-0.025600,-0.019700,0.025600,-0.019700,0.035400,-0.009800,0.035400,0.009800,0.025600,0.019700,0.0*
1,1,0.019685,0.025600,0.009800*
1,1,0.019685,-0.025600,0.009800*
1,1,0.019685,-0.025600,-0.009800*
1,1,0.019685,0.025600,-0.009800*
%
%AMD102*
4,1,8,0.006900,0.010600,-0.006900,0.010600,-0.012500,0.005000,-0.012500,-0.005000,-0.006900,-0.010600,0.006900,-0.010600,0.012500,-0.005000,0.012500,0.005000,0.006900,0.010600,0.0*
1,1,0.011268,0.006900,0.005000*
1,1,0.011268,-0.006900,0.005000*
1,1,0.011268,-0.006900,-0.005000*
1,1,0.011268,0.006900,-0.005000*
%
%AMD103*
4,1,8,0.010600,-0.006900,0.010600,0.006900,0.005000,0.012500,-0.005000,0.012500,-0.010600,0.006900,-0.010600,-0.006900,-0.005000,-0.012500,0.005000,-0.012500,0.010600,-0.006900,0.0*
1,1,0.011268,0.005000,-0.006900*
1,1,0.011268,0.005000,0.006900*
1,1,0.011268,-0.005000,0.006900*
1,1,0.011268,-0.005000,-0.006900*
%
%ADD15C,0.010000*%
%ADD35R,0.070866X0.062992*%
%ADD78C,0.031496*%
%ADD79C,0.020000*%
%ADD80C,0.007000*%
%ADD84C,0.118110*%
%ADD85C,0.067913*%
%ADD86R,0.067913X0.067913*%
%ADD87C,0.109252*%
%ADD88R,0.109252X0.109252*%
%ADD89C,0.070866*%
%ADD90C,0.051181*%
%ADD91R,0.051181X0.051181*%
%ADD92C,0.074803*%
G04~CAMADD=93~8~0.0~0.0~708.7~393.7~98.4~0.0~15~0.0~0.0~0.0~0.0~0~0.0~0.0~0.0~0.0~0~0.0~0.0~0.0~0.0~708.7~393.7*
%ADD93D93*%
%ADD94O,0.082677X0.039370*%
%ADD95C,0.025591*%
%ADD96C,0.064960*%
%ADD97R,0.064960X0.064960*%
%ADD98R,0.067913X0.067913*%
%ADD99C,0.021654*%
%ADD100C,0.019685*%
%ADD101R,0.216535X0.078740*%
G04~CAMADD=102~8~0.0~0.0~250.0~212.6~56.3~0.0~15~0.0~0.0~0.0~0.0~0~0.0~0.0~0.0~0.0~0~0.0~0.0~0.0~0.0~250.0~212.6*
%ADD102D102*%
G04~CAMADD=103~8~0.0~0.0~250.0~212.6~56.3~0.0~15~0.0~0.0~0.0~0.0~0~0.0~0.0~0.0~0.0~0~0.0~0.0~0.0~270.0~213.0~250.0*
%ADD103D103*%
%ADD104R,0.110236X0.275590*%
%ADD105R,0.149606X0.137795*%
%LNpeoplecounter-1*%
%LPD*%
G36*
X27256Y16036D02*
X27313Y16012D01*
X27364Y15978*
X27407Y15935*
X27441Y15884*
X27465Y15827*
X27477Y15767*
Y15736*
Y393*
Y362*
X27465Y302*
X27441Y245*
X27407Y194*
X27364Y151*
X27313Y117*
X27256Y93*
X27196Y81*
X27165*
X393*
X362*
X302Y93*
X245Y117*
X194Y151*
X151Y194*
X117Y245*
X93Y302*
X81Y362*
Y393*
Y15736*
Y15767*
X93Y15827*
X117Y15884*
X151Y15935*
X194Y15978*
X245Y16012*
X302Y16036*
X362Y16048*
X393*
X27196*
X27256Y16036*
G37*
%LNpeoplecounter-2*%
%LPC*%
G36*
X8418Y15994D02*
X8329D01*
X8244Y15971*
X8167Y15926*
X8104Y15864*
X8060Y15787*
X8037Y15701*
Y15613*
X8060Y15527*
X8104Y15450*
X8167Y15388*
X8244Y15343*
X8329Y15320*
X8418*
X8503Y15343*
X8580Y15388*
X8643Y15450*
X8687Y15527*
X8710Y15613*
Y15701*
X8687Y15787*
X8643Y15864*
X8580Y15926*
X8503Y15971*
X8418Y15994*
G37*
G36*
X7418D02*
X7329D01*
X7244Y15971*
X7167Y15926*
X7104Y15864*
X7060Y15787*
X7037Y15701*
Y15613*
X7060Y15527*
X7104Y15450*
X7167Y15388*
X7244Y15343*
X7329Y15320*
X7418*
X7503Y15343*
X7580Y15388*
X7643Y15450*
X7687Y15527*
X7710Y15613*
Y15701*
X7687Y15787*
X7643Y15864*
X7580Y15926*
X7503Y15971*
X7418Y15994*
G37*
G36*
X23168Y15208D02*
X23051D01*
X22938Y15178*
X22837Y15119*
X22754Y15036*
X22695Y14935*
X22665Y14822*
Y14705*
X22695Y14592*
X22754Y14490*
X22837Y14407*
X22938Y14349*
X23051Y14318*
X23168*
X23281Y14349*
X23383Y14407*
X23466Y14490*
X23524Y14592*
X23555Y14705*
Y14822*
X23524Y14935*
X23466Y15036*
X23383Y15119*
X23281Y15178*
X23168Y15208*
G37*
G36*
X18274Y15773D02*
X12859D01*
X12793Y15760*
X12737Y15722*
X12193Y15178*
X12082Y15208*
X11965*
X11851Y15178*
X11750Y15119*
X11667Y15036*
X11609Y14935*
X11578Y14822*
Y14705*
X11609Y14592*
X11667Y14490*
X11750Y14407*
X11851Y14349*
X11965Y14318*
X12082*
X12195Y14349*
X12296Y14407*
X12379Y14490*
X12438Y14592*
X12468Y14705*
Y14822*
X12438Y14933*
X12931Y15426*
X18202*
X18374Y15254*
X18354Y15208*
X17665*
Y14318*
X18555*
Y15008*
X18601Y15027*
X18695Y14933*
X18665Y14822*
Y14705*
X18695Y14592*
X18754Y14490*
X18837Y14407*
X18938Y14349*
X19051Y14318*
X19168*
X19281Y14349*
X19383Y14407*
X19466Y14490*
X19524Y14592*
X19555Y14705*
Y14822*
X19524Y14935*
X19466Y15036*
X19383Y15119*
X19281Y15178*
X19168Y15208*
X19051*
X18940Y15178*
X18396Y15722*
X18340Y15760*
X18274Y15773*
G37*
G36*
X16082Y15208D02*
X15965D01*
X15851Y15178*
X15750Y15119*
X15667Y15036*
X15609Y14935*
X15578Y14822*
Y14705*
X15609Y14592*
X15667Y14490*
X15750Y14407*
X15851Y14349*
X15965Y14318*
X16082*
X16195Y14349*
X16296Y14407*
X16379Y14490*
X16438Y14592*
X16468Y14705*
Y14822*
X16438Y14935*
X16379Y15036*
X16296Y15119*
X16195Y15178*
X16082Y15208*
G37*
G36*
X11468D02*
X10578D01*
Y14318*
X11468*
Y15208*
G37*
G36*
X8818Y15102D02*
X7929D01*
Y14212*
X8818*
Y15102*
G37*
G36*
X20168Y15208D02*
X20051D01*
X19938Y15178*
X19837Y15119*
X19754Y15036*
X19695Y14935*
X19665Y14822*
Y14705*
X19695Y14593*
X19184Y14083*
X13949*
X13438Y14593*
X13468Y14705*
Y14822*
X13438Y14935*
X13379Y15036*
X13296Y15119*
X13195Y15178*
X13082Y15208*
X12965*
X12851Y15178*
X12750Y15119*
X12667Y15036*
X12609Y14935*
X12578Y14822*
Y14705*
X12609Y14592*
X12667Y14490*
X12750Y14407*
X12851Y14349*
X12965Y14318*
X13082*
X13193Y14348*
X13754Y13787*
X13811Y13749*
X13877Y13736*
X19256*
X19322Y13749*
X19379Y13787*
X19940Y14348*
X20051Y14318*
X20168*
X20281Y14349*
X20383Y14407*
X20466Y14490*
X20524Y14592*
X20555Y14705*
Y14822*
X20524Y14935*
X20466Y15036*
X20383Y15119*
X20281Y15178*
X20168Y15208*
G37*
G36*
X4510Y15311D02*
X4379D01*
X4250Y15286*
X4129Y15236*
X4020Y15163*
X3927Y15070*
X3854Y14961*
X3804Y14840*
X3778Y14711*
Y14580*
X3804Y14451*
X3854Y14330*
X3927Y14220*
X4020Y14128*
X4129Y14055*
X4250Y14005*
X4379Y13979*
X4510*
X4639Y14005*
X4760Y14055*
X4869Y14128*
X4962Y14220*
X5035Y14330*
X5085Y14451*
X5111Y14580*
Y14711*
X5085Y14840*
X5035Y14961*
X4962Y15070*
X4869Y15163*
X4760Y15236*
X4639Y15286*
X4510Y15311*
G37*
G36*
X26049Y15773D02*
X25919D01*
X25793Y15739*
X25680Y15674*
X25588Y15582*
X25523Y15470*
X25490Y15344*
Y15214*
X25523Y15088*
X25588Y14976*
X25680Y14884*
X25793Y14819*
X25844Y14805*
Y14753*
X25793Y14739*
X25680Y14674*
X25588Y14582*
X25523Y14470*
X25490Y14344*
Y14214*
X25523Y14088*
X25588Y13976*
X25680Y13884*
X25793Y13819*
X25919Y13785*
X26049*
X26174Y13819*
X26287Y13884*
X26379Y13976*
X26444Y14088*
X26478Y14214*
Y14344*
X26444Y14470*
X26379Y14582*
X26287Y14674*
X26174Y14739*
X26123Y14753*
Y14805*
X26174Y14819*
X26287Y14884*
X26379Y14976*
X26444Y15088*
X26478Y15214*
Y15344*
X26444Y15470*
X26379Y15582*
X26287Y15674*
X26174Y15739*
X26049Y15773*
G37*
G36*
Y12773D02*
X25919D01*
X25793Y12739*
X25680Y12674*
X25588Y12582*
X25523Y12470*
X25490Y12344*
Y12214*
X25523Y12088*
X25588Y11976*
X25680Y11884*
X25793Y11819*
X25919Y11785*
X26049*
X26174Y11819*
X26287Y11884*
X26379Y11976*
X26444Y12088*
X26478Y12214*
Y12344*
X26444Y12470*
X26379Y12582*
X26287Y12674*
X26174Y12739*
X26049Y12773*
G37*
G36*
X18393Y11828D02*
X18306D01*
X18226Y11795*
X18164Y11733*
X18131Y11653*
Y11566*
X18164Y11486*
X18226Y11424*
X18306Y11391*
X18393*
X18473Y11424*
X18535Y11486*
X18568Y11566*
Y11653*
X18535Y11733*
X18473Y11795*
X18393Y11828*
G37*
G36*
X19033Y11778D02*
X18946D01*
X18866Y11745*
X18804Y11683*
X18771Y11603*
Y11516*
X18804Y11436*
X18816Y11424*
Y11328*
X18812Y11325*
X18773Y11267*
X18759Y11198*
Y11061*
X18773Y10992*
X18812Y10934*
X18870Y10895*
X18939Y10881*
X19039*
X19108Y10895*
X19166Y10934*
X19205Y10992*
X19219Y11061*
Y11198*
X19205Y11267*
X19166Y11325*
X19162Y11328*
Y11424*
X19175Y11436*
X19208Y11516*
Y11603*
X19175Y11683*
X19113Y11745*
X19033Y11778*
G37*
G36*
X22583Y11798D02*
X22496D01*
X22416Y11765*
X22354Y11703*
X22321Y11623*
Y11536*
X22354Y11456*
X22361Y11449*
Y11311*
X22352Y11305*
X22313Y11247*
X22299Y11178*
Y11041*
X22313Y10972*
X22352Y10914*
X22410Y10875*
X22479Y10861*
X22579*
X22648Y10875*
X22706Y10914*
X22745Y10972*
X22759Y11041*
Y11178*
X22745Y11247*
X22707Y11303*
Y11439*
X22725Y11456*
X22758Y11536*
Y11623*
X22725Y11703*
X22663Y11765*
X22583Y11798*
G37*
G36*
X5111Y11611D02*
X3778D01*
Y10278*
X5111*
Y11611*
G37*
G36*
X19173Y10648D02*
X19086D01*
X19006Y10615*
X18944Y10553*
X18911Y10473*
Y10386*
X18944Y10306*
X19006Y10244*
X19086Y10211*
X19173*
X19253Y10244*
X19315Y10306*
X19348Y10386*
Y10473*
X19315Y10553*
X19253Y10615*
X19173Y10648*
G37*
G36*
X18553Y10452D02*
X18466D01*
X18386Y10418*
X18324Y10357*
X18291Y10277*
Y10190*
X18324Y10110*
X18386Y10048*
X18466Y10015*
X18553*
X18633Y10048*
X18695Y10110*
X18728Y10190*
Y10277*
X18695Y10357*
X18633Y10418*
X18553Y10452*
G37*
G36*
X26438Y10833D02*
X26317D01*
X26200Y10802*
X26095Y10741*
X26010Y10656*
X25949Y10551*
X25918Y10434*
Y10313*
X25949Y10196*
X26010Y10091*
X26095Y10006*
X26200Y9945*
X26317Y9914*
X26438*
X26555Y9945*
X26660Y10006*
X26745Y10091*
X26806Y10196*
X26837Y10313*
Y10434*
X26806Y10551*
X26745Y10656*
X26660Y10741*
X26555Y10802*
X26438Y10833*
G37*
G36*
X17393Y10253D02*
X17306D01*
X17226Y10220*
X17164Y10159*
X17131Y10078*
Y9991*
X17164Y9911*
X17226Y9850*
X17306Y9816*
X17393*
X17473Y9850*
X17535Y9911*
X17568Y9991*
Y10078*
X17535Y10159*
X17473Y10220*
X17393Y10253*
G37*
G36*
X15940Y10695D02*
X15819D01*
X15702Y10664*
X15597Y10603*
X15512Y10518*
X15451Y10413*
X15420Y10296*
Y10175*
X15451Y10058*
X15512Y9954*
X15597Y9868*
X15702Y9807*
X15819Y9776*
X15940*
X16057Y9807*
X16162Y9868*
X16247Y9954*
X16308Y10058*
X16339Y10175*
Y10296*
X16308Y10413*
X16247Y10518*
X16162Y10603*
X16057Y10664*
X15940Y10695*
G37*
G36*
X14940D02*
X14819D01*
X14702Y10664*
X14597Y10603*
X14512Y10518*
X14451Y10413*
X14420Y10296*
Y10175*
X14451Y10058*
X14512Y9954*
X14597Y9868*
X14702Y9807*
X14819Y9776*
X14940*
X15057Y9807*
X15162Y9868*
X15247Y9954*
X15308Y10058*
X15339Y10175*
Y10296*
X15308Y10413*
X15247Y10518*
X15162Y10603*
X15057Y10664*
X14940Y10695*
G37*
G36*
X13940D02*
X13819D01*
X13702Y10664*
X13597Y10603*
X13512Y10518*
X13451Y10413*
X13420Y10296*
Y10175*
X13451Y10058*
X13512Y9954*
X13597Y9868*
X13702Y9807*
X13819Y9776*
X13940*
X14057Y9807*
X14162Y9868*
X14247Y9954*
X14308Y10058*
X14339Y10175*
Y10296*
X14308Y10413*
X14247Y10518*
X14162Y10603*
X14057Y10664*
X13940Y10695*
G37*
G36*
X20263Y9668D02*
X20176D01*
X20096Y9635*
X20034Y9573*
X20001Y9493*
Y9406*
X20034Y9326*
X20096Y9264*
X20176Y9231*
X20263*
X20343Y9264*
X20405Y9326*
X20438Y9406*
Y9493*
X20405Y9573*
X20343Y9635*
X20263Y9668*
G37*
G36*
X19733Y9468D02*
X19646D01*
X19566Y9435*
X19504Y9373*
X19471Y9293*
Y9206*
X19504Y9126*
X19566Y9064*
X19646Y9031*
X19733*
X19813Y9064*
X19875Y9126*
X19908Y9206*
Y9293*
X19875Y9373*
X19813Y9435*
X19733Y9468*
G37*
G36*
X26438Y9833D02*
X26317D01*
X26200Y9802*
X26095Y9741*
X26010Y9656*
X25949Y9551*
X25918Y9434*
Y9313*
X25949Y9196*
X26010Y9091*
X26095Y9006*
X26200Y8945*
X26317Y8914*
X26438*
X26555Y8945*
X26660Y9006*
X26745Y9091*
X26806Y9196*
X26837Y9313*
Y9434*
X26806Y9551*
X26745Y9656*
X26660Y9741*
X26555Y9802*
X26438Y9833*
G37*
G36*
X18563Y8878D02*
X18476D01*
X18396Y8845*
X18334Y8783*
X18301Y8703*
Y8616*
X18334Y8536*
X18396Y8474*
X18476Y8441*
X18563*
X18643Y8474*
X18705Y8536*
X18738Y8616*
Y8703*
X18705Y8783*
X18643Y8845*
X18563Y8878*
G37*
G36*
X14327Y8822D02*
X14240D01*
X14160Y8789*
X14099Y8728*
X14065Y8647*
Y8560*
X14099Y8480*
X14160Y8419*
X14240Y8385*
X14327*
X14408Y8419*
X14469Y8480*
X14502Y8560*
Y8647*
X14469Y8728*
X14408Y8789*
X14327Y8822*
G37*
G36*
X4510Y13461D02*
X4379D01*
X4250Y13435*
X4129Y13385*
X4020Y13312*
X3927Y13220*
X3854Y13110*
X3804Y12989*
X3778Y12860*
Y12729*
X3804Y12600*
X3854Y12479*
X3927Y12370*
X4020Y12277*
X4129Y12204*
X4250Y12154*
X4379Y12129*
X4510*
X4639Y12154*
X4760Y12204*
X4869Y12277*
X4962Y12370*
X5028Y12470*
X10454*
X10800Y12124*
Y9120*
X10809Y9047*
X10837Y8980*
X10882Y8922*
X11312Y8492*
X11370Y8447*
X11437Y8419*
X11510Y8410*
X11985*
Y8226*
X12934*
Y9096*
X11985*
Y8969*
X11625*
X11359Y9235*
Y12240*
X11350Y12312*
X11322Y12379*
X11277Y12437*
X10767Y12947*
X10709Y12992*
X10642Y13020*
X10570Y13029*
X5068*
X5035Y13110*
X4962Y13220*
X4869Y13312*
X4760Y13385*
X4639Y13435*
X4510Y13461*
G37*
G36*
X6583Y8658D02*
X6496D01*
X6416Y8625*
X6354Y8563*
X6321Y8483*
Y8396*
X6354Y8316*
X6416Y8254*
X6496Y8221*
X6583*
X6663Y8254*
X6725Y8316*
X6758Y8396*
Y8483*
X6725Y8563*
X6663Y8625*
X6583Y8658*
G37*
G36*
X26438Y8833D02*
X26317D01*
X26200Y8802*
X26095Y8741*
X26010Y8656*
X25949Y8551*
X25918Y8434*
Y8313*
X25949Y8196*
X26010Y8091*
X26095Y8006*
X26200Y7945*
X26317Y7914*
X26438*
X26555Y7945*
X26660Y8006*
X26745Y8091*
X26806Y8196*
X26837Y8313*
Y8434*
X26806Y8551*
X26745Y8656*
X26660Y8741*
X26555Y8802*
X26438Y8833*
G37*
G36*
X22383Y8218D02*
X22296D01*
X22216Y8185*
X22154Y8123*
X22121Y8043*
Y7956*
X22154Y7876*
X22216Y7814*
X22296Y7781*
X22383*
X22463Y7814*
X22525Y7876*
X22530Y7890*
X22585*
X22594Y7866*
X22656Y7804*
X22736Y7771*
X22823*
X22903Y7804*
X22965Y7866*
X22998Y7946*
Y8033*
X22965Y8113*
X22903Y8175*
X22823Y8208*
X22736*
X22656Y8175*
X22594Y8113*
X22589Y8099*
X22535*
X22525Y8123*
X22463Y8185*
X22383Y8218*
G37*
G36*
X6583Y8168D02*
X6496D01*
X6416Y8135*
X6354Y8073*
X6321Y7993*
Y7906*
X6354Y7826*
X6416Y7764*
X6496Y7731*
X6583*
X6663Y7764*
X6725Y7826*
X6758Y7906*
Y7993*
X6725Y8073*
X6663Y8135*
X6583Y8168*
G37*
G36*
X2343Y8078D02*
X2244D01*
X2153Y8040*
X2084Y7971*
X2046Y7880*
Y7781*
X2084Y7690*
X2153Y7620*
X2244Y7582*
X2343*
X2434Y7620*
X2504Y7690*
X2542Y7781*
Y7880*
X2504Y7971*
X2434Y8040*
X2343Y8078*
G37*
G36*
X24068Y7900D02*
X23931D01*
X23862Y7886*
X23804Y7847*
X23765Y7789*
X23751Y7720*
Y7620*
X23765Y7551*
X23804Y7493*
X23862Y7454*
X23931Y7440*
X24068*
X24137Y7454*
X24195Y7493*
X24201Y7502*
X24339*
X24346Y7494*
X24426Y7461*
X24513*
X24593Y7494*
X24655Y7556*
X24688Y7636*
Y7723*
X24655Y7803*
X24593Y7865*
X24513Y7898*
X24426*
X24346Y7865*
X24329Y7848*
X24194*
X24137Y7886*
X24068Y7900*
G37*
G36*
X17433Y7498D02*
X17346D01*
X17266Y7465*
X17204Y7403*
X17171Y7323*
Y7236*
X17204Y7156*
X17266Y7094*
X17346Y7061*
X17433*
X17513Y7094*
X17575Y7156*
X17608Y7236*
Y7323*
X17575Y7403*
X17513Y7465*
X17433Y7498*
G37*
G36*
X26438Y7833D02*
X26317D01*
X26200Y7802*
X26095Y7741*
X26010Y7656*
X25949Y7551*
X25918Y7434*
Y7313*
X25949Y7196*
X26010Y7091*
X26095Y7006*
X26200Y6945*
X26317Y6914*
X26438*
X26555Y6945*
X26660Y7006*
X26745Y7091*
X26806Y7196*
X26837Y7313*
Y7434*
X26806Y7551*
X26745Y7656*
X26660Y7741*
X26555Y7802*
X26438Y7833*
G37*
G36*
X9203Y6688D02*
X9116D01*
X9036Y6655*
X8974Y6593*
X8941Y6513*
Y6426*
X8974Y6346*
X9036Y6284*
X9116Y6251*
X9203*
X9283Y6284*
X9345Y6346*
X9378Y6426*
Y6513*
X9345Y6593*
X9283Y6655*
X9203Y6688*
G37*
G36*
X18553Y7308D02*
X18466D01*
X18386Y7275*
X18324Y7213*
X18291Y7133*
Y7046*
X18324Y6966*
X18386Y6904*
X18466Y6871*
X18553*
X18554Y6871*
X18591Y6847*
X18624Y6766*
X18686Y6705*
X18766Y6672*
X18851*
Y6656*
X18884Y6576*
X18946Y6514*
X19026Y6481*
X19031*
X19050Y6435*
X18228Y5613*
X10900*
X10833Y5600*
X10777Y5562*
X9967Y4752*
X9929Y4696*
X9916Y4630*
Y1847*
X9866Y1822*
X9803Y1848*
X9716*
X9636Y1815*
X9574Y1753*
X9541Y1673*
Y1586*
X9574Y1506*
X9636Y1444*
X9716Y1411*
X9803*
X9866Y1437*
X9916Y1412*
Y1119*
X9912Y1118*
X9807Y1057*
X9722Y972*
X9661Y867*
X9630Y750*
Y629*
X9661Y512*
X9722Y407*
X9807Y322*
X9912Y261*
X10029Y230*
X10150*
X10267Y261*
X10372Y322*
X10457Y407*
X10518Y512*
X10549Y629*
Y750*
X10518Y867*
X10457Y972*
X10372Y1057*
X10267Y1118*
X10263Y1119*
Y2786*
X10304Y2814*
X10336Y2801*
X10353*
X10457Y2697*
X10513Y2659*
X10580Y2646*
X12740*
X12806Y2659*
X12862Y2697*
X14011Y3846*
X21315*
X21480Y3681*
X21459Y3631*
X21386Y3601*
X21374Y3589*
X20636*
X20570Y3576*
X20513Y3539*
X20097Y3122*
X20059Y3066*
X20046Y3000*
Y2042*
X19757Y1753*
X17597*
Y726*
X20002*
Y1508*
X20342Y1848*
X20380Y1904*
X20393Y1970*
Y2928*
X20708Y3243*
X21374*
X21386Y3231*
X21466Y3197*
X21553*
X21633Y3231*
X21695Y3292*
X21709Y3327*
X21730Y3332*
X21765Y3332*
X21820Y3277*
X21900Y3244*
X21987*
X22067Y3277*
X22129Y3339*
X22162Y3419*
Y3506*
X22129Y3586*
X22067Y3647*
X21987Y3681*
X21970*
X21509Y4142*
X21453Y4180*
X21387Y4193*
X13940*
X13873Y4180*
X13817Y4142*
X12668Y2993*
X10651*
X10598Y3046*
Y3063*
X10565Y3143*
X10503Y3205*
X10423Y3238*
X10336*
X10304Y3225*
X10263Y3253*
Y4558*
X10971Y5266*
X18300*
X18366Y5279*
X18422Y5317*
X19354Y6249*
X19357Y6249*
X19410Y6234*
X19434Y6176*
X19496Y6114*
X19576Y6081*
X19663*
X19743Y6114*
X19805Y6176*
X19838Y6256*
Y6343*
X19805Y6423*
X19743Y6485*
X19663Y6518*
X19578*
Y6543*
X19545Y6623*
X19483Y6685*
X19403Y6718*
X19316*
X19282Y6758*
X19255Y6823*
X19193Y6885*
X19113Y6918*
X19028*
Y6933*
X18995Y7014*
X18933Y7075*
X18853Y7108*
X18766*
X18765Y7108*
X18728Y7133*
X18695Y7213*
X18633Y7275*
X18553Y7308*
G37*
G36*
X2193Y7344D02*
X2106D01*
X2026Y7310*
X1964Y7249*
X1931Y7169*
Y7082*
X1964Y7002*
X1995Y6971*
X1964Y6940*
X1931Y6859*
Y6833*
X1838Y6740*
X1803Y6689*
X1791Y6628*
Y6460*
X1803Y6399*
X1838Y6348*
X1931Y6254*
Y6216*
X1964Y6136*
X2026Y6074*
X2106Y6041*
X2193*
X2273Y6074*
X2335Y6136*
X2368Y6216*
Y6303*
X2335Y6383*
X2303Y6414*
X2335Y6445*
X2368Y6526*
Y6551*
X2471Y6655*
X2505Y6706*
X2517Y6766*
Y6915*
X2505Y6976*
X2471Y7027*
X2368Y7130*
Y7169*
X2335Y7249*
X2273Y7310*
X2193Y7344*
G37*
G36*
X3562Y7454D02*
X3533Y7448D01*
X3519*
X3506Y7443*
X3477Y7437*
X3452Y7420*
X3439Y7415*
X3429Y7405*
X3404Y7388*
X3387Y7363*
X3377Y7353*
X3372Y7340*
X3355Y7315*
X3349Y7286*
X3344Y7273*
Y7259*
X3338Y7230*
Y6170*
X3344Y6140*
Y6126*
X3349Y6113*
X3355Y6084*
X3372Y6059*
X3377Y6046*
X3387Y6036*
X3404Y6011*
X3429Y5994*
X3439Y5984*
X3452Y5979*
X3477Y5962*
X3506Y5956*
X3519Y5951*
X3533*
X3562Y5945*
X3592Y5951*
X3606*
X3619Y5956*
X3648Y5962*
X3673Y5979*
X3686Y5984*
X3696Y5994*
X3721Y6011*
X3738Y6036*
X3748Y6046*
X3753Y6059*
X3770Y6084*
X3776Y6113*
X3781Y6126*
Y6140*
X3787Y6170*
Y7230*
X3781Y7259*
Y7273*
X3776Y7286*
X3770Y7315*
X3753Y7340*
X3748Y7353*
X3738Y7363*
X3721Y7388*
X3696Y7405*
X3686Y7415*
X3673Y7420*
X3648Y7437*
X3619Y7443*
X3606Y7448*
X3592*
X3562Y7454*
G37*
G36*
X26438Y6833D02*
X26317D01*
X26200Y6802*
X26095Y6741*
X26010Y6656*
X25949Y6551*
X25918Y6434*
Y6313*
X25949Y6196*
X26010Y6091*
X26095Y6006*
X26200Y5945*
X26317Y5914*
X26438*
X26555Y5945*
X26660Y6006*
X26745Y6091*
X26806Y6196*
X26837Y6313*
Y6434*
X26806Y6551*
X26745Y6656*
X26660Y6741*
X26555Y6802*
X26438Y6833*
G37*
G36*
X2343Y5803D02*
X2244D01*
X2153Y5765*
X2084Y5695*
X2046Y5604*
Y5505*
X2084Y5414*
X2153Y5344*
X2244Y5307*
X2343*
X2434Y5344*
X2504Y5414*
X2542Y5505*
Y5604*
X2504Y5695*
X2434Y5765*
X2343Y5803*
G37*
G36*
X19623Y5858D02*
X19536D01*
X19456Y5825*
X19394Y5763*
X19361Y5683*
Y5596*
X19394Y5516*
X19406Y5504*
Y5195*
X19374Y5147*
X19360Y5078*
Y4941*
X19374Y4872*
X19413Y4814*
X19471Y4775*
X19540Y4761*
X19640*
X19709Y4775*
X19767Y4814*
X19806Y4872*
X19820Y4941*
Y5078*
X19806Y5147*
X19767Y5205*
X19753Y5215*
Y5504*
X19765Y5516*
X19798Y5596*
Y5683*
X19765Y5763*
X19703Y5825*
X19623Y5858*
G37*
G36*
X17863Y5158D02*
X17776D01*
X17696Y5125*
X17634Y5063*
X17601Y4983*
Y4896*
X17634Y4816*
X17696Y4754*
X17776Y4721*
X17863*
X17943Y4754*
X18005Y4816*
X18038Y4896*
Y4983*
X18005Y5063*
X17943Y5125*
X17863Y5158*
G37*
G36*
X22216Y4662D02*
X22129D01*
X22049Y4628*
X22037Y4617*
X13773*
X13707Y4603*
X13651Y4566*
X12542Y3458*
X11000*
X10989Y3469*
X10908Y3503*
X10821*
X10741Y3469*
X10680Y3408*
X10646Y3328*
Y3241*
X10680Y3160*
X10741Y3099*
X10821Y3066*
X10908*
X10989Y3099*
X11000Y3111*
X12614*
X12681Y3124*
X12737Y3162*
X13845Y4270*
X22037*
X22049Y4258*
X22129Y4225*
X22216*
X22297Y4258*
X22358Y4320*
X22391Y4400*
Y4487*
X22358Y4567*
X22297Y4628*
X22216Y4662*
G37*
G36*
X24053Y4268D02*
X23966D01*
X23886Y4235*
X23824Y4173*
X23791Y4093*
Y4006*
X23824Y3926*
X23886Y3864*
X23966Y3831*
X24053*
X24133Y3864*
X24195Y3926*
X24228Y4006*
Y4093*
X24195Y4173*
X24133Y4235*
X24053Y4268*
G37*
G36*
X14153Y3748D02*
X14066D01*
X13986Y3715*
X13924Y3653*
X13891Y3573*
Y3486*
X13924Y3406*
X13986Y3344*
X14066Y3311*
X14153*
X14233Y3344*
X14295Y3406*
X14328Y3486*
Y3573*
X14295Y3653*
X14233Y3715*
X14153Y3748*
G37*
G36*
X20019Y3634D02*
X19932D01*
X19852Y3601*
X19840Y3589*
X16856*
X16790Y3576*
X16733Y3539*
X16387Y3192*
X16349Y3136*
X16336Y3070*
Y2072*
X16017Y1753*
X13857*
Y726*
X16262*
Y1508*
X16637Y1882*
X16674Y1939*
X16687Y2005*
X16683Y2028*
Y2998*
X16928Y3243*
X19840*
X19852Y3231*
X19932Y3197*
X20019*
X20099Y3231*
X20160Y3292*
X20194Y3372*
Y3459*
X20160Y3540*
X20099Y3601*
X20019Y3634*
G37*
G36*
X24163Y3288D02*
X24076D01*
X23996Y3255*
X23934Y3193*
X23901Y3113*
Y3026*
X23934Y2946*
X23996Y2884*
X24076Y2851*
X24163*
X24243Y2884*
X24305Y2946*
X24338Y3026*
Y3113*
X24305Y3193*
X24243Y3255*
X24163Y3288*
G37*
G36*
X1370Y3328D02*
X618D01*
Y2576*
X1370*
Y3328*
G37*
G36*
X8623Y2538D02*
X8536D01*
X8456Y2505*
X8394Y2443*
X8361Y2363*
Y2276*
X8394Y2196*
X8456Y2134*
X8536Y2101*
X8623*
X8703Y2134*
X8765Y2196*
X8798Y2276*
Y2363*
X8765Y2443*
X8703Y2505*
X8623Y2538*
G37*
G36*
X15193Y2368D02*
X15106D01*
X15026Y2335*
X14964Y2273*
X14931Y2193*
Y2106*
X14964Y2026*
X15026Y1964*
X15106Y1931*
X15193*
X15273Y1964*
X15335Y2026*
X15368Y2106*
Y2193*
X15335Y2273*
X15273Y2335*
X15193Y2368*
G37*
G36*
X11423Y1848D02*
X11336D01*
X11256Y1815*
X11194Y1753*
X11161Y1673*
Y1586*
X11194Y1506*
X11256Y1444*
X11336Y1411*
X11423*
X11503Y1444*
X11565Y1506*
X11598Y1586*
Y1673*
X11565Y1753*
X11503Y1815*
X11423Y1848*
G37*
G36*
X1043Y1753D02*
X944D01*
X849Y1728*
X763Y1678*
X693Y1608*
X643Y1523*
X618Y1427*
Y1328*
X643Y1232*
X693Y1147*
X763Y1077*
X849Y1027*
X944Y1002*
X1043*
X1139Y1027*
X1224Y1077*
X1294Y1147*
X1344Y1232*
X1370Y1328*
Y1427*
X1344Y1523*
X1294Y1608*
X1224Y1678*
X1139Y1728*
X1043Y1753*
G37*
G36*
X25800Y1299D02*
X25679D01*
X25562Y1268*
X25457Y1207*
X25372Y1122*
X25311Y1017*
X25280Y900*
Y779*
X25311Y662*
X25372Y557*
X25457Y472*
X25562Y411*
X25679Y380*
X25800*
X25917Y411*
X26022Y472*
X26107Y557*
X26168Y662*
X26199Y779*
Y900*
X26168Y1017*
X26107Y1122*
X26022Y1207*
X25917Y1268*
X25800Y1299*
G37*
G36*
X24800D02*
X24679D01*
X24562Y1268*
X24457Y1207*
X24372Y1122*
X24311Y1017*
X24280Y900*
Y779*
X24311Y662*
X24372Y557*
X24457Y472*
X24562Y411*
X24679Y380*
X24800*
X24917Y411*
X25022Y472*
X25107Y557*
X25168Y662*
X25199Y779*
Y900*
X25168Y1017*
X25107Y1122*
X25022Y1207*
X24917Y1268*
X24800Y1299*
G37*
G36*
X23800D02*
X23679D01*
X23562Y1268*
X23457Y1207*
X23372Y1122*
X23311Y1017*
X23280Y900*
Y779*
X23311Y662*
X23372Y557*
X23457Y472*
X23562Y411*
X23679Y380*
X23800*
X23917Y411*
X24022Y472*
X24107Y557*
X24168Y662*
X24199Y779*
Y900*
X24168Y1017*
X24107Y1122*
X24022Y1207*
X23917Y1268*
X23800Y1299*
G37*
G36*
X22800D02*
X22679D01*
X22562Y1268*
X22457Y1207*
X22372Y1122*
X22311Y1017*
X22280Y900*
Y779*
X22311Y662*
X22372Y557*
X22457Y472*
X22562Y411*
X22679Y380*
X22800*
X22917Y411*
X23022Y472*
X23107Y557*
X23168Y662*
X23199Y779*
Y900*
X23168Y1017*
X23107Y1122*
X23022Y1207*
X22917Y1268*
X22800Y1299*
G37*
G36*
X13549Y1149D02*
X12630D01*
Y230*
X13549*
Y1149*
G37*
G36*
X11150D02*
X11029D01*
X10912Y1118*
X10807Y1057*
X10722Y972*
X10661Y867*
X10630Y750*
Y629*
X10661Y512*
X10722Y407*
X10807Y322*
X10912Y261*
X11029Y230*
X11150*
X11267Y261*
X11372Y322*
X11457Y407*
X11518Y512*
X11549Y629*
Y750*
X11518Y867*
X11457Y972*
X11372Y1057*
X11267Y1118*
X11150Y1149*
G37*
G36*
X9150D02*
X9029D01*
X8912Y1118*
X8807Y1057*
X8722Y972*
X8661Y867*
X8630Y750*
Y629*
X8661Y512*
X8722Y407*
X8807Y322*
X8912Y261*
X9029Y230*
X9150*
X9267Y261*
X9372Y322*
X9457Y407*
X9518Y512*
X9549Y629*
Y750*
X9518Y867*
X9457Y972*
X9372Y1057*
X9267Y1118*
X9150Y1149*
G37*
G36*
X8150D02*
X8029D01*
X7912Y1118*
X7807Y1057*
X7722Y972*
X7661Y867*
X7630Y750*
Y629*
X7661Y512*
X7722Y407*
X7807Y322*
X7912Y261*
X8029Y230*
X8150*
X8267Y261*
X8372Y322*
X8457Y407*
X8518Y512*
X8549Y629*
Y750*
X8518Y867*
X8457Y972*
X8372Y1057*
X8267Y1118*
X8150Y1149*
G37*
G36*
X6860Y2619D02*
X6787Y2610D01*
X6720Y2582*
X6662Y2537*
X6617Y2479*
X6589Y2412*
X6580Y2340*
Y1763*
X5824*
Y145*
X7560*
Y1763*
X7139*
Y2340*
X7130Y2412*
X7102Y2479*
X7057Y2537*
X6999Y2582*
X6932Y2610*
X6860Y2619*
G37*
%LNpeoplecounter-3*%
%LPD*%
G54D15*
X19489Y1240D02*
X20220Y1970D01*
Y3000*
X20636Y3416*
X21510*
X10580Y2820D02*
X12740D01*
X10380Y3020D02*
X10580Y2820D01*
X12740D02*
X13940Y4020D01*
X21387*
X13773Y4443D02*
X22173D01*
X10865Y3284D02*
X12614D01*
X13773Y4443*
X19580Y5020D02*
Y5640D01*
Y5020D02*
X19590Y5010D01*
X18300Y5440D02*
X19360Y6500D01*
X10900Y5440D02*
X18300D01*
X10090Y4630D02*
X10900Y5440D01*
X10090Y690D02*
Y4630D01*
X13023Y14763D02*
X13877Y13910D01*
X19256D02*
X20110Y14763D01*
X13877Y13910D02*
X19256D01*
X12023Y14763D02*
X12859Y15600D01*
X18274D02*
X19110Y14763D01*
X12859Y15600D02*
X18274D01*
X15748Y1240D02*
X16514Y2005D01*
X16510Y2010D02*
Y3070D01*
Y2010D02*
X16514Y2005D01*
X16510Y3070D02*
X16856Y3416D01*
X19975*
X18800Y1240D02*
X19489D01*
X15060D02*
X15748D01*
X22534Y11574D02*
X22540Y11580D01*
X22529Y11110D02*
X22534Y11115D01*
Y11574*
X24004Y7675D02*
X24465D01*
X24470Y7680*
X24000Y7670D02*
X24004Y7675D01*
X18989Y11130D02*
Y11559D01*
X18990Y11560*
X18989Y11130D02*
X18989Y11130D01*
X21387Y4020D02*
X21944Y3462D01*
G54D35*
X12460Y7558D03*
Y8661D03*
G54D78*
X6692Y9340D02*
Y10462D01*
X3254Y8946D02*
X6299D01*
X6692Y9340*
Y954D02*
X6860Y1121D01*
Y2340*
X2704Y8396D02*
X3254Y8946D01*
X11080Y9120D02*
X11510Y8690D01*
X12431*
X11080Y9120D02*
Y12240D01*
X12431Y8690D02*
X12460Y8661D01*
X4490Y12750D02*
X10570D01*
X11080Y12240*
X4444Y12795D02*
X4490Y12750D01*
G54D79*
X19890Y5560D02*
X19929Y5520D01*
Y5010D02*
Y5520D01*
X3562Y6170D02*
Y7230D01*
X24540Y8009D02*
X24680Y7870D01*
X24000Y8009D02*
X24540D01*
X22190Y10799D02*
Y11110D01*
Y10799D02*
X22340Y10650D01*
X18650Y10799D02*
Y11130D01*
Y10799D02*
X18800Y10650D01*
X12470Y7110D02*
Y7548D01*
X12460Y7558D02*
X12470Y7548D01*
G54D80*
X2149Y7125D02*
X2359Y6915D01*
X2162Y6569D02*
X2359Y6766D01*
Y6915*
X1949Y6628D02*
X2137Y6816D01*
X1949Y6460D02*
X2149Y6260D01*
X1949Y6460D02*
Y6628D01*
G54D84*
X15980Y7050D03*
X23350Y12640D03*
X26630Y2360D03*
X5860Y15090D03*
X2990Y1110D03*
G54D85*
X9090Y690D03*
X10090D03*
X11090D03*
X12090D03*
X8090D03*
X15879Y10236D03*
X14879D03*
X13879D03*
X26377Y9374D03*
Y8374D03*
Y7374D03*
Y6374D03*
Y10374D03*
X25740Y840D03*
X24740D03*
X23740D03*
X22740D03*
G54D86*
X13090Y690D03*
X12879Y10236D03*
X21740Y840D03*
G54D87*
X692Y15393D03*
Y10196D03*
X4444Y14645D03*
Y12795D03*
G54D88*
X4444Y10944D03*
G54D89*
X994Y531D03*
Y3799D03*
G54D90*
X994Y1377D03*
Y2165D03*
G54D91*
X994Y2952D03*
G54D92*
X25984Y12279D03*
Y13279D03*
Y14279D03*
Y15279D03*
G54D93*
X845Y8393D03*
Y4992D03*
G54D94*
X2491Y8393D03*
Y4992D03*
G54D95*
X2294Y5555D03*
Y7830D03*
G54D96*
X16023Y14763D03*
X15023D03*
X14023D03*
X13023D03*
X12023D03*
X23110D03*
X22110D03*
X21110D03*
X20110D03*
X19110D03*
X7374Y14657D03*
G54D97*
X11023Y14763D03*
X18110D03*
X8374Y14657D03*
G54D98*
X26377Y5374D03*
G54D99*
X7374Y15657D03*
X8374D03*
G54D100*
X10380Y3020D03*
X19890Y5560D03*
X12460Y4700D03*
X13570Y4680D03*
X9190Y4520D03*
X14110Y3530D03*
X17820Y4940D03*
X8580Y2320D03*
X6850Y2350D03*
X5403Y8946D03*
X6540Y8440D03*
Y7950D03*
X17350Y10035D03*
X14830Y8600D03*
X15409Y5995D03*
X13790Y5995D03*
X11900Y7190D03*
Y7690D03*
X12470Y7100D03*
X10865Y3284D03*
X9760Y1630D03*
X14284Y8604D03*
X8340Y10960D03*
X21510Y3416D03*
X19975D03*
X3562Y6170D03*
Y7230D03*
X2149Y6816D03*
Y6260D03*
Y7125D03*
Y6569D03*
X24010Y4050D03*
X24120Y3070D03*
X11380Y1630D03*
X24680Y7870D03*
X22340Y10650D03*
X18800D03*
X17430Y8460D03*
X17680Y3100D03*
X24100Y2000D03*
X15040Y370D03*
X19620Y6300D03*
X18350Y11610D03*
X22540Y11580D03*
X18520Y8660D03*
X19580Y5640D03*
X24470Y7680D03*
X18990Y11560D03*
X22173Y4443D03*
X21944Y3462D03*
X22780Y7990D03*
X22340Y8000D03*
X19130Y10430D03*
X18510Y10233D03*
X19690Y9250D03*
X20220Y9450D03*
X19360Y6500D03*
X19070Y6700D03*
X18810Y6890D03*
X15150Y2150D03*
X9160Y6470D03*
X11810Y8690D03*
X18510Y7090D03*
X17390Y7280D03*
X9160Y8000D03*
G54D101*
X18800Y1240D03*
X15060D03*
G54D102*
X24000Y7670D03*
Y8009D03*
G54D103*
X19590Y5010D03*
X19929D03*
X22529Y11110D03*
X22190D03*
X18650Y11130D03*
X18989D03*
G54D104*
X6692Y10068D03*
G54D105*
X6692Y954D03*
M02*