%FSLAX24Y24*%
%MOIN*%
%SFA1B1*%

%IPPOS*%
%AMD71*
4,1,8,0.025600,0.023700,-0.025600,0.023700,-0.039400,0.009800,-0.039400,-0.009800,-0.025600,-0.023700,0.025600,-0.023700,0.039400,-0.009800,0.039400,0.009800,0.025600,0.023700,0.0*
1,1,0.027685,0.025600,0.009800*
1,1,0.027685,-0.025600,0.009800*
1,1,0.027685,-0.025600,-0.009800*
1,1,0.027685,0.025600,-0.009800*
%
%AMD107*
4,1,8,0.006900,0.014600,-0.006900,0.014600,-0.016500,0.005000,-0.016500,-0.005000,-0.006900,-0.014600,0.006900,-0.014600,0.016500,-0.005000,0.016500,0.005000,0.006900,0.014600,0.0*
1,1,0.019268,0.006900,0.005000*
1,1,0.019268,-0.006900,0.005000*
1,1,0.019268,-0.006900,-0.005000*
1,1,0.019268,0.006900,-0.005000*
%
%AMD108*
4,1,8,0.014600,-0.006900,0.014600,0.006900,0.005000,0.016500,-0.005000,0.016500,-0.014600,0.006900,-0.014600,-0.006900,-0.005000,-0.016500,0.005000,-0.016500,0.014600,-0.006900,0.0*
1,1,0.019268,0.005000,-0.006900*
1,1,0.019268,0.005000,0.006900*
1,1,0.019268,-0.005000,0.006900*
1,1,0.019268,-0.005000,-0.006900*
%
%ADD56R,0.078866X0.070992*%
%ADD62C,0.126110*%
%ADD63C,0.075913*%
%ADD64R,0.075913X0.075913*%
%ADD65C,0.117252*%
%ADD66R,0.117252X0.117252*%
%ADD67C,0.078866*%
%ADD68C,0.059181*%
%ADD69R,0.059181X0.059181*%
%ADD70C,0.082803*%
G04~CAMADD=71~8~0.0~0.0~788.7~473.7~138.4~0.0~15~0.0~0.0~0.0~0.0~0~0.0~0.0~0.0~0.0~0~0.0~0.0~0.0~0.0~788.7~473.7*
%ADD71D71*%
%ADD72O,0.090677X0.047370*%
%ADD73C,0.033590*%
%ADD74C,0.072960*%
%ADD75R,0.072960X0.072960*%
%ADD76R,0.075913X0.075913*%
%ADD77C,0.029653*%
%ADD106R,0.224535X0.086740*%
G04~CAMADD=107~8~0.0~0.0~330.0~292.6~96.3~0.0~15~0.0~0.0~0.0~0.0~0~0.0~0.0~0.0~0.0~0~0.0~0.0~0.0~0.0~330.0~292.6*
%ADD107D107*%
G04~CAMADD=108~8~0.0~0.0~330.0~292.6~96.3~0.0~15~0.0~0.0~0.0~0.0~0~0.0~0.0~0.0~0.0~0~0.0~0.0~0.0~270.0~293.0~330.0*
%ADD108D108*%
%ADD109R,0.118236X0.283590*%
%ADD110R,0.157606X0.145795*%
%LNpeoplecounter-1*%
%LPD*%
G54D56*
X12460Y7558D03*
Y8661D03*
G54D62*
X15980Y7050D03*
X23350Y12640D03*
X26630Y2360D03*
X5860Y15090D03*
X2990Y1110D03*
G54D63*
X9090Y690D03*
X10090D03*
X11090D03*
X12090D03*
X8090D03*
X15879Y10236D03*
X14879D03*
X13879D03*
X26377Y9374D03*
Y8374D03*
Y7374D03*
Y6374D03*
Y10374D03*
X25740Y840D03*
X24740D03*
X23740D03*
X22740D03*
G54D64*
X13090Y690D03*
X12879Y10236D03*
X21740Y840D03*
G54D65*
X692Y15393D03*
Y10196D03*
X4444Y14645D03*
Y12795D03*
G54D66*
X4444Y10944D03*
G54D67*
X994Y531D03*
Y3799D03*
G54D68*
X994Y1377D03*
Y2165D03*
G54D69*
X994Y2952D03*
G54D70*
X25984Y12279D03*
Y13279D03*
Y14279D03*
Y15279D03*
G54D71*
X845Y8393D03*
Y4992D03*
G54D72*
X2491Y8393D03*
Y4992D03*
G54D73*
X2294Y5555D03*
Y7830D03*
G54D74*
X16023Y14763D03*
X15023D03*
X14023D03*
X13023D03*
X12023D03*
X23110D03*
X22110D03*
X21110D03*
X20110D03*
X19110D03*
X7374Y14657D03*
G54D75*
X11023Y14763D03*
X18110D03*
X8374Y14657D03*
G54D76*
X26377Y5374D03*
G54D77*
X7374Y15657D03*
X8374D03*
G54D106*
X18800Y1240D03*
X15060D03*
G54D107*
X24000Y7670D03*
Y8009D03*
G54D108*
X19590Y5010D03*
X19929D03*
X22529Y11110D03*
X22190D03*
X18650Y11130D03*
X18989D03*
G54D109*
X6692Y10068D03*
G54D110*
X6692Y954D03*
M02*