M48
;Layer_Color=9474304
;FILE_FORMAT=2:4
INCH
;TYPE=PLATED
T01F00S00C0.0118
T03F00S00C0.0315
T04F00S00C0.0433
T05F00S00C0.0453
T06F00S00C0.0472
T07F00S00C0.0512
T08F00S00C0.0728
T09F00S00C0.0866
;TYPE=NON_PLATED
T10F00S00C0.0256
T11F00S00C0.0433
%
T01
X011380Y001630
X012460Y004700
X013570Y004680
X013791Y005996
X015409Y005996
X017390Y007280
X018510Y007090
X018810Y006890
X019070Y006700
X019360Y006500
X019620Y006300
X019580Y005640
X019890Y005560
X019976Y003416
X021510
X021944Y003463
X022173Y004444
X024010Y004050
X024120Y003070
X024100Y002000
X017680Y003100
X017820Y004940
X014110Y003530
X015150Y002150
X015040Y000370
X012470Y007100
X011900Y007190
X009160Y006470
X009190Y004520
X010380Y003020
X010865Y003285
X009760Y001630
X008580Y002320
X006850Y002350
X003563Y006170
Y007230
X002150Y007126
Y006816
Y006569
Y006260
X005404Y008947
X006540Y008440
Y007950
X009160Y008000
X008340Y010960
X011810Y008690
X011900Y007690
X014284Y008604
X014830Y008600
X017430Y008460
X018520Y008660
X018510Y010234
X018800Y010650
X019130Y010430
X018990Y011560
X018350Y011610
X017350Y010035
X019690Y009250
X020220Y009450
X022340Y010650
X022540Y011580
X022340Y008000
X022780Y007990
X024470Y007680
X024680Y007870
T03
X000994Y001378
Y002165
Y002953
T04
X007374Y014657
X008374
X011024Y014764
X012024
X013024
X014024
X015024
X016024
X018110
X019110
X020110
X021110
X022110
X023110
T05
X012090Y000690
X013090
X021740Y000840
X022740
X023740
X024740
X025740
X026378Y005374
Y006374
Y007374
X011090Y000690
X010090
X009090
X008090
X012880Y010236
X013880
X014880
X015880
X026378Y010374
Y009374
Y008374
T06
X000994Y000531
Y003799
T07
X025984Y012280
Y013280
Y014280
Y015280
T08
X000693Y010197
X004445Y010945
Y012795
Y014646
X000693Y015394
T09
X015980Y007050
X026630Y002360
X002990Y001110
X005860Y015090
X023350Y012640
T10
X002294Y005555
Y007831
T11
X007374Y015657
X008374
M30
