%FSLAX24Y24*%
%MOIN*%
%SFA1B1*%

%IPPOS*%
%AMD24*
4,1,8,0.028500,-0.011300,0.028500,0.011300,0.017200,0.022600,-0.017200,0.022600,-0.028500,0.011300,-0.028500,-0.011300,-0.017200,-0.022600,0.017200,-0.022600,0.028500,-0.011300,0.0*
1,1,0.022638,0.017200,-0.011300*
1,1,0.022638,0.017200,0.011300*
1,1,0.022638,-0.017200,0.011300*
1,1,0.022638,-0.017200,-0.011300*
%
%AMD25*
4,1,8,0.011800,0.015700,-0.011800,0.015700,-0.019700,0.007900,-0.019700,-0.007900,-0.011800,-0.015700,0.011800,-0.015700,0.019700,-0.007900,0.019700,0.007900,0.011800,0.015700,0.0*
1,1,0.015748,0.011800,0.007900*
1,1,0.015748,-0.011800,0.007900*
1,1,0.015748,-0.011800,-0.007900*
1,1,0.015748,0.011800,-0.007900*
%
%AMD33*
4,1,8,-0.015700,0.011800,-0.015700,-0.011800,-0.007900,-0.019700,0.007900,-0.019700,0.015700,-0.011800,0.015700,0.011800,0.007900,0.019700,-0.007900,0.019700,-0.015700,0.011800,0.0*
1,1,0.015748,-0.007900,0.011800*
1,1,0.015748,-0.007900,-0.011800*
1,1,0.015748,0.007900,-0.011800*
1,1,0.015748,0.007900,0.011800*
%
%AMD39*
4,1,8,-0.011300,-0.028500,0.011300,-0.028500,0.022600,-0.017200,0.022600,0.017200,0.011300,0.028500,-0.011300,0.028500,-0.022600,0.017200,-0.022600,-0.017200,-0.011300,-0.028500,0.0*
1,1,0.022638,-0.011300,-0.017200*
1,1,0.022638,0.011300,-0.017200*
1,1,0.022638,0.011300,0.017200*
1,1,0.022638,-0.011300,0.017200*
%
%ADD20C,0.039370*%
%ADD21R,0.035433X0.037401*%
%ADD22R,0.037401X0.035433*%
%ADD23R,0.145669X0.055118*%
G04~CAMADD=24~8~0.0~0.0~452.8~570.9~113.2~0.0~15~0.0~0.0~0.0~0.0~0~0.0~0.0~0.0~0.0~0~0.0~0.0~0.0~270.0~570.0~452.0*
%ADD24D24*%
G04~CAMADD=25~8~0.0~0.0~393.7~315.0~78.7~0.0~15~0.0~0.0~0.0~0.0~0~0.0~0.0~0.0~0.0~0~0.0~0.0~0.0~0.0~393.7~315.0*
%ADD25D25*%
%ADD26R,0.045275X0.070866*%
%ADD27R,0.082677X0.055118*%
%ADD28R,0.059055X0.011811*%
%ADD29R,0.011811X0.059055*%
%ADD30R,0.045275X0.023622*%
%ADD31R,0.045275X0.011811*%
%ADD32R,0.070866X0.045275*%
G04~CAMADD=33~8~0.0~0.0~393.7~315.0~78.7~0.0~15~0.0~0.0~0.0~0.0~0~0.0~0.0~0.0~0.0~0~0.0~0.0~0.0~90.0~316.0~393.0*
%ADD33D33*%
%ADD34R,0.062992X0.070866*%
%ADD35R,0.070866X0.062992*%
%ADD36R,0.016535X0.032283*%
%ADD37O,0.068701X0.022047*%
%ADD38R,0.060039X0.025591*%
G04~CAMADD=39~8~0.0~0.0~452.8~570.9~113.2~0.0~15~0.0~0.0~0.0~0.0~0~0.0~0.0~0.0~0.0~0~0.0~0.0~0.0~180.0~452.0~570.0*
%ADD39D39*%
%ADD40R,0.013780X0.019685*%
%LNpeoplecounter-1*%
%LPD*%
G54D20*
X4810Y9450D03*
Y8943D03*
Y8436D03*
Y7930D03*
G54D21*
X6305Y10960D03*
X5714D03*
G54D22*
X14950Y5994D03*
Y6585D03*
X14240Y5994D03*
Y6585D03*
G54D23*
X9890Y12681D03*
Y11658D03*
G54D24*
X12740Y4234D03*
Y3525D03*
X13570Y4234D03*
Y3525D03*
G54D25*
X9160Y8404D03*
Y8955D03*
X3543Y7644D03*
Y8195D03*
Y5755D03*
Y5204D03*
X9170Y7445D03*
Y6894D03*
G54D26*
X21430Y2520D03*
X20289D03*
X22449Y4040D03*
X23590D03*
X22219Y3060D03*
X23360D03*
X18219Y4070D03*
X19360D03*
X20429Y4080D03*
X21570D03*
G54D27*
X19311Y374D03*
X15728D03*
X19311Y2145D03*
X15728D03*
G54D28*
X17908Y10432D03*
Y10235D03*
Y10038D03*
Y9841D03*
Y9644D03*
Y9447D03*
Y9251D03*
Y9054D03*
Y8857D03*
Y8660D03*
Y8463D03*
Y8266D03*
Y8070D03*
Y7873D03*
Y7676D03*
Y7479D03*
Y7282D03*
Y7085D03*
Y6888D03*
Y6692D03*
Y6495D03*
Y6298D03*
Y6101D03*
Y5904D03*
Y5707D03*
X24011D03*
Y5904D03*
Y6101D03*
Y6298D03*
Y6495D03*
Y6692D03*
Y6888D03*
Y7085D03*
Y7282D03*
Y7479D03*
Y7676D03*
Y7873D03*
Y8070D03*
Y8266D03*
Y8463D03*
Y8660D03*
Y8857D03*
Y9054D03*
Y9251D03*
Y9447D03*
Y9644D03*
Y9841D03*
Y10038D03*
Y10235D03*
Y10432D03*
G54D29*
X18597Y5018D03*
X18794D03*
X18991D03*
X19188D03*
X19385D03*
X19582D03*
X19778D03*
X19975D03*
X20172D03*
X20369D03*
X20566D03*
X20763D03*
X20960D03*
X21156D03*
X21353D03*
X21550D03*
X21747D03*
X21944D03*
X22141D03*
X22337D03*
X22534D03*
X22731D03*
X22928D03*
X23125D03*
X23322D03*
Y11121D03*
X23125D03*
X22928D03*
X22731D03*
X22534D03*
X22337D03*
X22141D03*
X21944D03*
X21747D03*
X21550D03*
X21353D03*
X21156D03*
X20960D03*
X20763D03*
X20566D03*
X20369D03*
X20172D03*
X19975D03*
X19778D03*
X19582D03*
X19385D03*
X19188D03*
X18991D03*
X18794D03*
X18597D03*
G54D30*
X2717Y7952D03*
Y5433D03*
Y7637D03*
Y5748D03*
G54D31*
X2717Y6594D03*
Y6791D03*
Y6397D03*
Y6200D03*
Y6003D03*
Y6988D03*
Y7185D03*
Y7381D03*
G54D32*
X17630Y11889D03*
Y13030D03*
G54D33*
X14835Y8190D03*
X14284D03*
G54D34*
X23311Y2000D03*
X22208D03*
X18228Y3100D03*
X19331D03*
G54D35*
X20310Y478D03*
Y1581D03*
G54D36*
X6850Y3992D03*
Y3087D03*
X7410Y3992D03*
Y3087D03*
G54D37*
X8217Y5450D03*
Y5950D03*
Y6450D03*
Y6950D03*
Y7450D03*
Y7950D03*
Y8450D03*
Y8950D03*
X5955Y5450D03*
Y5950D03*
Y6450D03*
Y6950D03*
Y7450D03*
Y7950D03*
Y8450D03*
Y8950D03*
G54D38*
X9672Y3020D03*
Y3520D03*
Y4020D03*
Y4520D03*
X11807D03*
Y4020D03*
Y3520D03*
Y3020D03*
X11362Y7190D03*
Y7690D03*
Y8190D03*
Y8690D03*
X13497D03*
Y8190D03*
Y7690D03*
Y7190D03*
G54D39*
X7145Y10960D03*
X7854D03*
X7445Y2320D03*
X8154D03*
G54D40*
X10274Y2002D03*
Y2317D03*
X10471Y2002D03*
Y2317D03*
X10668Y2002D03*
Y2317D03*
X10865Y2002D03*
Y2317D03*
M02*